<?xml version="1.0" encoding="UTF-8" standalone="no"?>
<svg
     viewBox="0 0 96 96"
     version="1.1"
     id="svg4"
     sodipodi:docname="fidolio-dark.svg"
     inkscape:version="1.4 (1:1.4+202410161351+e7c3feb100)"
     inkscape:export-filename="down-light.png"
     inkscape:export-xdpi="96"
     inkscape:export-ydpi="96"
     width="96"
     height="96"
     xmlns:inkscape="http://www.inkscape.org/namespaces/inkscape"
     xmlns:sodipodi="http://sodipodi.sourceforge.net/DTD/sodipodi-0.dtd"
     xmlns="http://www.w3.org/2000/svg"
     xmlns:svg="http://www.w3.org/2000/svg"
     xmlns:rdf="http://www.w3.org/1999/02/22-rdf-syntax-ns#"
     xmlns:cc="http://creativecommons.org/ns#">
    <defs
         id="defs8" />
    <sodipodi:namedview
         id="namedview6"
         pagecolor="#ffffff"
         bordercolor="#000000"
         borderopacity="0.25"
         inkscape:showpageshadow="true"
         inkscape:pageopacity="0.0"
         inkscape:pagecheckerboard="true"
         inkscape:deskcolor="#d1d1d1"
         showgrid="true"
         showguides="true"
         inkscape:zoom="7.9270833"
         inkscape:cx="48"
         inkscape:cy="48"
         inkscape:window-width="1920"
         inkscape:window-height="1002"
         inkscape:window-x="0"
         inkscape:window-y="0"
         inkscape:window-maximized="1"
         inkscape:current-layer="svg4"
         inkscape:lockguides="false">
        <sodipodi:guide
             position="12,0"
             orientation="1,0"
             id="guide0200"
             inkscape:locked="false"
             inkscape:label="H2" />
        <sodipodi:guide
             position="48,0"
             orientation="1,0"
             id="guide0800"
             inkscape:locked="false"
             inkscape:label="H8" />
        <sodipodi:guide
             position="84,0"
             orientation="1,0"
             id="guide1400"
             inkscape:locked="false"
             inkscape:label="H14" />
        <sodipodi:guide
             position="0,12"
             orientation="0,-1"
             id="guide0020"
             inkscape:locked="false"
             inkscape:label="V2" />
        <sodipodi:guide
             position="0,48"
             orientation="0,-1"
             id="guide0008"
             inkscape:locked="false"
             inkscape:label="V8" />
        <sodipodi:guide
             position="0,84"
             orientation="0,-1"
             id="guide0014"
             inkscape:locked="false"
             inkscape:label="V14" />
        <inkscape:grid
             id="grid1"
             units="px"
             originx="0"
             originy="0"
             spacingx="1"
             spacingy="1"
             empcolor="#9a0036"
             empopacity="0.30196078"
             color="#0099e5"
             opacity="0.14901961"
             empspacing="5"
             enabled="true"
             visible="true" />
    </sodipodi:namedview>
    <metadata
         id="metadata3816">
        <rdf:RDF>
            <cc:Work
                 rdf:about="">
                <cc:license
                     rdf:resource="http://artlibre.org/licence/lal" />
            </cc:Work>
            <cc:License
                 rdf:about="http://artlibre.org/licence/lal">
                <cc:permits
                     rdf:resource="http://creativecommons.org/ns#Reproduction" />
                <cc:permits
                     rdf:resource="http://creativecommons.org/ns#Distribution" />
                <cc:permits
                     rdf:resource="http://creativecommons.org/ns#DerivativeWorks" />
                <cc:requires
                     rdf:resource="http://creativecommons.org/ns#ShareAlike" />
                <cc:requires
                     rdf:resource="http://creativecommons.org/ns#Notice" />
                <cc:requires
                     rdf:resource="http://creativecommons.org/ns#Attribution" />
            </cc:License>
        </rdf:RDF>
    </metadata>
    <path
         id="path0001"
         style="fill:#ffffff;fill-opacity:1"
         d="m 53.450642,12.000224 c -0.145301,0.0013 -0.290384,0.0055 -0.434883,0.01464 -0.03134,0.0034 -0.06245,0.0081 -0.09371,0.01172 H 27.01905 C 18.724106,12.026581 12.000003,18.752151 12,27.047095 V 68.980949 C 12,77.275893 18.724106,84 27.01905,84 h 41.933856 c 8.29494,0 15.019048,-6.724107 15.019048,-15.019051 V 27.047095 c 0,-8.294944 -6.724108,-15.020514 -15.019048,-15.020514 H 54.113961 c -0.220706,-0.01793 -0.442177,-0.02825 -0.663319,-0.02636 z M 27.01905,15.076661 h 17.676706 c -2.411937,1.592422 -4.492553,3.70208 -6.051842,6.138234 -3.424004,4.409361 -2.303828,10.38146 -0.8156,15.306047 0.280034,1.028861 0.524058,2.335427 -0.427568,3.029581 -0.425568,0.310427 -5.281753,2.892633 -6.037198,3.285829 0.347,0.721272 1.84818,4.228888 2.153946,4.883351 0.486005,-0.263038 6.517306,-3.220272 7.057797,-3.499614 2.366119,5.594394 8.238693,19.076564 11.228048,27.999833 0.243258,1.014907 0.804099,2.36518 0.294313,3.30633 -3.586835,1.562239 -6.001479,-4.375884 -10.430014,-0.04392 -1.266848,1.321133 -0.995304,3.641521 0.01898,5.463199 H 27.01905 c -6.657201,0 -11.964576,-5.307371 -11.964576,-11.964573 V 27.047095 c 0,-6.657201 5.307375,-11.970434 11.964576,-11.970434 z m 31.54484,0 h 10.389016 c 6.657196,0 11.970428,5.313233 11.970428,11.970434 v 41.933854 c 0,6.657202 -5.313232,11.964576 -11.970428,11.964576 h -15.07616 c 0.388199,-0.271964 0.763765,-0.545052 1.124562,-0.814137 4.670867,-3.457354 6.292725,-9.731103 5.098598,-15.248938 -0.992741,-5.392661 -2.450255,-8.61408 -3.460074,-11.33494 -0.853737,-2.172459 -5.864117,-13.890874 -6.09577,-14.639803 2.66345,-1.42038 5.791643,-2.857516 8.454711,-4.278606 -0.73817,-1.651577 -1.487121,-3.298359 -2.230081,-4.947779 -2.677814,1.350023 -5.642706,2.725458 -8.322934,4.07068 -1.497714,-3.949789 -3.612423,-8.163666 -2.607867,-12.51075 0.366255,-1.625948 1.917805,-1.456782 3.094007,-0.858064 2.906565,1.319175 7.168182,1.617099 8.987708,-1.566772 0.872472,-1.089639 1.045182,-2.50701 0.644284,-3.739755 z" />
</svg>
