<?xml version="1.0" encoding="UTF-8" standalone="no"?>
<svg
     viewBox="0 0 96 96"
     version="1.1"
     id="svg4"
     sodipodi:docname="pomodoro-dark.svg"
     inkscape:version="1.4 (1:1.4+202410161351+e7c3feb100)"
     inkscape:export-filename="down-light.png"
     inkscape:export-xdpi="96"
     inkscape:export-ydpi="96"
     width="96"
     height="96"
     xml:space="preserve"
     xmlns:inkscape="http://www.inkscape.org/namespaces/inkscape"
     xmlns:sodipodi="http://sodipodi.sourceforge.net/DTD/sodipodi-0.dtd"
     xmlns="http://www.w3.org/2000/svg"
     xmlns:svg="http://www.w3.org/2000/svg"
     xmlns:rdf="http://www.w3.org/1999/02/22-rdf-syntax-ns#"
     xmlns:cc="http://creativecommons.org/ns#"><defs
         id="defs8" /><sodipodi:namedview
         id="namedview6"
         pagecolor="#ffffff"
         bordercolor="#000000"
         borderopacity="0.25"
         inkscape:showpageshadow="true"
         inkscape:pageopacity="0.0"
         inkscape:pagecheckerboard="true"
         inkscape:deskcolor="#d1d1d1"
         showgrid="true"
         showguides="true"
         inkscape:zoom="7.9270833"
         inkscape:cx="48"
         inkscape:cy="48"
         inkscape:window-width="1920"
         inkscape:window-height="1002"
         inkscape:window-x="0"
         inkscape:window-y="0"
         inkscape:window-maximized="1"
         inkscape:current-layer="svg4"
         inkscape:lockguides="false"><sodipodi:guide
             position="12,0"
             orientation="1,0"
             id="guide0200"
             inkscape:locked="false"
             inkscape:label="H2" /><sodipodi:guide
             position="48,0"
             orientation="1,0"
             id="guide0800"
             inkscape:locked="false"
             inkscape:label="H8" /><sodipodi:guide
             position="84,0"
             orientation="1,0"
             id="guide1400"
             inkscape:locked="false"
             inkscape:label="H14" /><sodipodi:guide
             position="0,12"
             orientation="0,-1"
             id="guide0020"
             inkscape:locked="false"
             inkscape:label="V2" /><sodipodi:guide
             position="0,48"
             orientation="0,-1"
             id="guide0008"
             inkscape:locked="false"
             inkscape:label="V8" /><sodipodi:guide
             position="0,84"
             orientation="0,-1"
             id="guide0014"
             inkscape:locked="false"
             inkscape:label="V14" /><inkscape:grid
             id="grid1"
             units="px"
             originx="0"
             originy="0"
             spacingx="1"
             spacingy="1"
             empcolor="#9a0036"
             empopacity="0.30196078"
             color="#0099e5"
             opacity="0.14901961"
             empspacing="5"
             enabled="true"
             visible="true" /></sodipodi:namedview><metadata
         id="metadata3816"><rdf:RDF><cc:Work
                 rdf:about=""><cc:license
                     rdf:resource="http://artlibre.org/licence/lal" /></cc:Work><cc:License
                 rdf:about="http://artlibre.org/licence/lal"><cc:permits
                     rdf:resource="http://creativecommons.org/ns#Reproduction" /><cc:permits
                     rdf:resource="http://creativecommons.org/ns#Distribution" /><cc:permits
                     rdf:resource="http://creativecommons.org/ns#DerivativeWorks" /><cc:requires
                     rdf:resource="http://creativecommons.org/ns#ShareAlike" /><cc:requires
                     rdf:resource="http://creativecommons.org/ns#Notice" /><cc:requires
                     rdf:resource="http://creativecommons.org/ns#Attribution" /></cc:License></rdf:RDF></metadata><path
         id="path1"
         style="fill:#ffffff;fill-opacity:1"
         d="M 75.656657,47.828246 C 79.812555,61.061434 71.142623,74.786977 55.757799,78.572909 40.372976,82.358842 24.539622,74.366138 20.338143,61.143268 17.114961,50.999287 21.75832,40.416202 30.967389,34.327921 c 0.05348,0.02498 0.104797,0.05611 0.158512,0.08037 2.02328,0.913761 4.19703,1.31619 6.532488,1.687821 -0.205761,0.181135 -0.375827,0.252158 -0.580468,0.45321 -2.055332,2.019283 -4.083097,5.320135 -3.301965,9.486173 0.293264,1.557152 2.360728,1.917535 3.163547,0.551443 1.777507,-3.026352 3.915405,-3.838469 6.306998,-4.947366 1.195795,-0.554448 2.466093,-1.1624 3.572105,-2.234798 0.428713,-0.415683 0.772922,-0.962714 1.107353,-1.518145 1.485192,1.327511 3.135935,1.936639 4.43834,2.304008 1.954117,0.551198 3.16045,0.735534 4.61248,3.429221 0.878738,1.630847 3.360856,0.902736 3.219361,-0.944375 -0.220003,-2.87833 -0.89061,-5.246771 -2.216938,-7.090629 -0.16712,-0.232329 -0.42695,-0.364184 -0.613956,-0.576002 2.116017,-0.21472 4.112233,-0.570429 5.922997,-1.332841 0.138728,-0.05841 0.274594,-0.124076 0.410793,-0.187536 5.644111,3.226092 9.97079,8.152568 11.91297,14.194653 m 4.264201,-1.370795 c -2.120487,-6.5968 -6.597596,-11.999509 -12.323763,-15.719496 1.266,-1.442925 2.30395,-3.294011 3.058615,-5.608205 0.586175,-1.802297 -1.753158,-3.083277 -2.955918,-1.618612 -1.675012,2.042015 -2.766056,2.74297 -3.426988,2.929127 -0.660932,0.186157 -1.256496,0.03572 -2.478147,-0.406326 -2.229943,-0.806902 -6.028158,-2.109337 -12.125065,-0.669771 -1.649318,-6.153548 -3.097836,-9.632771 -3.969502,-11.011013 -0.695254,-1.099307 -1.70405,-1.863231 -2.808568,-2.114241 -0.276129,-0.06275 -0.552287,-0.09282 -0.826049,-0.09377 l -4e-5,-3e-6 c -0.273763,-9.52e-4 -0.54513,0.02725 -0.808189,0.08261 -0.526119,0.110752 -1.02131,0.328755 -1.448935,0.629584 -1.710503,1.203317 -2.31686,3.846916 -0.968934,6.065881 1.903268,3.133169 2.56878,5.722587 4.04541,11.354829 0.240264,0.916259 1.177989,1.464099 2.094146,1.223447 0.91626,-0.240264 1.4641,-1.17799 1.223447,-2.094148 -1.475495,-5.62791 -2.271648,-8.707684 -4.431643,-12.263482 -0.597276,-0.983238 -0.234726,-1.309473 0.0112,-1.482424 0.122925,-0.08647 0.222903,-0.109369 0.350513,-0.08037 0.12761,0.029 0.359899,0.115071 0.669769,0.605026 0.520919,0.823656 2.201261,4.316665 4.014154,11.584784 0.238257,0.953867 1.228101,1.512501 2.167821,1.223445 6.46421,-1.991479 9.005117,-0.688777 11.64283,0.265676 0.766229,0.277258 1.62543,0.488171 2.53173,0.580468 -0.400759,0.243467 -0.706658,0.632192 -1.156469,0.821584 -2.435208,1.025331 -5.83126,1.248281 -10.082267,1.395353 -1.979057,0.07468 -2.276805,2.888405 -0.35721,3.37564 1.748848,0.437212 2.850087,1.149921 3.677036,2.299541 0.02594,0.03606 0.03932,0.09901 0.06474,0.136187 -0.67403,-0.289378 -1.387904,-0.672294 -1.964657,-0.834979 -1.983232,-0.55941 -3.070764,-0.656575 -4.360201,-3.163546 -0.754452,-1.464445 -2.93873,-1.126185 -3.214895,0.497862 -0.241227,1.423595 -0.680697,2.130235 -1.28819,2.719265 -0.607494,0.589032 -1.489775,1.057493 -2.62773,1.585122 -0.942007,0.436775 -2.092905,1.032995 -3.232755,1.734704 0.316272,-0.415894 0.543248,-0.904675 0.910887,-1.265865 1.583006,-1.555241 3.317593,-2.36652 3.317593,-2.36652 1.539553,-0.711454 1.222232,-2.987407 -0.453212,-3.250615 l -1.812843,-0.283536 c -3.405752,-0.53052 -5.926217,-0.877609 -7.997051,-1.812843 -0.607748,-0.274474 -1.168408,-0.760098 -1.743634,-1.163168 0.151415,0.0023 0.298512,0.06883 0.450979,0.06474 2.351358,-0.06298 4.740713,-0.715509 8.340866,-1.435539 0.929359,-0.185143 1.532308,-1.089066 1.346237,-2.01824 -0.186195,-0.928452 -1.089784,-1.530178 -2.01824,-1.344005 -3.686373,0.737275 -6.031302,1.322248 -7.760398,1.368563 -1.729096,0.04632 -2.943296,-0.290879 -5.099181,-1.705681 -1.548543,-1.015196 -3.38419,0.804968 -2.382147,2.362055 1.103718,1.714271 2.219852,3.080742 3.371174,4.186061 C 17.337552,38.803917 12.373415,50.875471 16.067245,62.500668 21.081699,78.282127 39.338279,87.22621 56.82943,82.921947 74.320582,78.617684 84.831493,62.193696 79.870866,46.398091 m -55.438238,4.915182 c -1.255298,0.137931 -2.160984,1.26754 -2.022704,2.522799 0,0 0.580501,5.434391 4.130247,10.888224 3.549746,5.453833 10.350272,11.026376 21.84119,11.267759 1.261855,0.02617 2.306187,-0.975189 2.333032,-2.23703 0.02617,-1.261855 -0.97519,-2.306187 -2.237031,-2.333032 C 38.370158,71.209677 33.295636,66.723544 30.371254,62.230519 27.44687,57.737495 26.953195,53.33821 26.953195,53.33821 26.81637,52.082982 25.687847,51.176365 24.432628,51.313273 Z M 56.867344,69.53101 c -0.182611,0.0034 -0.36752,0.0301 -0.553677,0.08261 -1.342705,0.378742 -2.1583,1.833662 -1.781587,3.176941 0.376714,1.343277 1.830863,2.160733 3.174708,1.786052 0.393039,-0.109586 0.612979,-0.450132 0.899725,-0.714421 0.06346,-0.04522 0.12456,-0.09366 0.18307,-0.145117 0.178671,-0.197463 0.36978,-0.323954 0.482234,-0.564839 0.300205,-0.524561 0.380475,-1.146655 0.223256,-1.730238 -0.0015,-0.0054 0.0038,-0.01017 0.0023,-0.01563 -0.0015,-0.0015 -0.003,-0.003 -0.0045,-0.0045 v -0.0023 -0.0023 -0.0023 -0.0023 -0.0023 c -0.04646,-0.163751 -0.22275,-0.228048 -0.299134,-0.374956 -0.165948,-0.39888 -0.441523,-0.742575 -0.794794,-0.991259 -0.458708,-0.307672 -0.983707,-0.503546 -1.531541,-0.493397 z" /></svg>
