<svg xmlns="http://www.w3.org/2000/svg" viewBox="0 0 1000 1000">
  <path fill-rule="evenodd" fill="currentColor" d="M 502.481 389.252 C 563.105 389.252 612.251 438.398 612.251 499.022 C 612.251 559.646 563.105 608.792 502.481 608.792 C 441.857 608.792 392.711 559.646 392.711 499.022 C 392.711 438.398 441.857 389.252 502.481 389.252 Z M 546.28 -5.30957 C 546.28 33.4948 546.28 72.2992 546.28 111.104 C 546.28 112.627 546.28 114.151 546.28 115.675 C 546.28 116.445 546.28 117.215 546.28 117.985 C 547.604 118.162 548.928 118.339 550.252 118.516 C 566.97 121.282 583.525 124.605 600.017 128.508 C 616.338 133.3 632.426 138.633 648.382 144.533 C 659.75 149.682 670.934 155.145 681.981 160.952 C 692.912 166.976 703.631 173.302 714.187 179.961 C 724.454 187.055 734.481 194.428 744.315 202.111 C 753.995 209.987 763.418 218.12 772.625 226.544 C 783.911 238.951 794.746 251.68 805.189 264.806 C 814.94 278.452 824.197 292.37 833.018 306.637 C 838.708 317.366 844.074 328.227 849.135 339.269 C 853.98 350.406 858.49 361.65 862.685 373.048 C 866.409 384.609 869.793 396.242 872.845 407.998 C 875.671 419.811 878.148 431.67 880.289 443.626 C 880.481 444.973 880.673 446.32 880.865 447.667 C 881.611 447.667 882.357 447.667 883.102 447.667 C 884.558 447.667 886.013 447.667 887.469 447.667 C 925.573 447.667 963.676 447.667 1001.78 447.667 C 1001.78 481 1001.78 514.334 1001.78 547.667 C 963.6 547.667 925.419 547.667 887.238 547.667 C 885.774 547.667 884.309 547.667 882.845 547.667 C 882.094 547.667 881.343 547.667 880.592 547.667 C 880.393 549.013 880.194 550.36 879.995 551.706 C 875.511 574.128 869.947 596.124 863.208 617.978 C 855.302 639.435 846.372 660.291 836.318 680.833 C 827.053 696.142 817.337 711.101 807.101 725.78 C 796.091 739.895 784.628 753.552 772.625 766.833 C 763.413 775.261 753.986 783.398 744.299 791.276 C 734.46 798.964 724.426 806.34 714.153 813.438 C 703.592 820.096 692.868 826.425 681.932 832.448 C 670.88 838.256 659.691 843.72 648.316 848.869 C 636.636 853.262 624.864 857.303 612.946 861.004 C 600.959 864.471 588.906 867.574 576.734 870.329 C 570.389 871.486 564.04 872.578 557.673 873.607 C 556.355 873.801 553.72 874.188 553.72 874.188 C 553.72 874.188 553.72 876.465 553.72 877.604 C 553.72 880.017 553.72 882.43 553.72 884.844 C 553.72 923.927 553.72 963.01 553.72 1002.09 C 520.386 1002.09 487.053 1002.09 453.72 1002.09 C 453.72 963.11 453.72 924.127 453.72 885.144 C 453.72 882.778 453.72 880.412 453.72 878.047 C 453.72 876.927 453.72 874.688 453.72 874.688 C 453.72 874.688 451.08 874.322 449.761 874.14 C 444.692 873.333 439.624 872.526 434.556 871.719 C 423.392 869.418 412.318 866.826 401.294 863.93 C 390.323 860.837 379.464 857.456 368.675 853.78 C 358.127 849.468 347.722 844.887 337.42 840.016 C 327.208 834.96 317.159 829.643 307.233 824.045 C 297.531 818.071 288.013 811.853 278.644 805.367 C 269.394 798.715 260.344 791.832 251.46 784.697 C 235.19 769.046 219.889 752.702 205.351 735.426 C 191.791 717.376 179.313 698.792 167.733 679.408 C 157.685 659.226 148.586 638.733 140.919 617.518 C 134.248 595.96 128.783 574.263 124.431 552.117 C 124.224 550.634 124.017 549.15 123.81 547.667 C 121.78 547.667 119.749 547.667 117.718 547.667 C 79.539 547.667 41.3603 547.667 3.18158 547.667 C 3.18158 514.334 3.18158 481 3.18158 447.667 C 41.2828 447.667 79.3841 447.667 117.485 447.667 C 119.508 447.667 121.532 447.667 123.555 447.667 C 123.754 446.18 123.953 444.694 124.152 443.207 C 128.412 420.953 133.607 399.084 140.4 377.456 C 148.008 356.119 157.059 335.512 167.071 315.204 C 178.61 295.728 190.92 276.895 204.628 258.864 C 219.163 241.49 234.469 225.049 250.754 209.298 C 259.656 202.116 268.725 195.186 277.997 188.487 C 287.388 181.957 296.931 175.697 306.661 169.682 C 316.614 164.045 326.693 158.692 336.936 153.603 C 347.27 148.699 357.709 144.087 368.291 139.746 C 380.414 135.614 392.614 131.804 404.935 128.302 C 417.339 125.308 429.791 122.641 442.333 120.29 C 443.649 120.077 444.964 119.864 446.28 119.651 C 446.28 118.893 446.28 118.134 446.28 117.376 C 446.28 115.785 446.28 114.193 446.28 112.602 C 446.28 73.2979 446.28 33.9941 446.28 -5.30957 C 479.614 -5.30957 512.947 -5.30957 546.28 -5.30957 Z M 579.839 228.591 C 590.798 232.064 601.594 235.915 612.388 239.868 C 625.598 246.234 638.512 253.051 651.22 260.37 C 663.488 268.405 675.404 276.85 687.057 285.756 C 698.508 296.985 709.461 308.597 719.993 320.693 C 729.753 333.421 738.948 346.467 747.658 359.938 C 754.919 374.257 761.529 388.788 767.532 403.68 C 772.489 418.953 776.717 434.339 780.268 450 C 756.012 450 731.757 450 707.502 450 C 707.502 483.333 707.502 516.667 707.502 550 C 731.64 550 755.778 550 779.916 550 C 776.117 565.409 771.717 580.573 766.665 595.619 C 760.662 610.312 754.091 624.671 746.907 638.825 C 738.315 652.164 729.242 665.085 719.606 677.692 C 709.203 689.672 698.379 701.17 687.057 712.287 C 673.698 722.399 660.001 731.888 645.832 740.832 C 631.098 748.811 616.118 756.105 600.753 762.792 C 585.227 767.631 569.604 771.848 553.72 775.347 C 553.72 752.732 553.72 730.117 553.72 707.502 C 520.386 707.502 487.053 707.502 453.72 707.502 C 453.72 730.303 453.72 753.105 453.72 775.906 C 451.691 775.556 449.662 775.205 447.634 774.854 C 429.65 770.596 412.132 765.34 394.77 759 C 378.015 751.214 361.915 742.549 346.189 732.845 C 331.095 722.194 316.8 710.794 303.047 698.455 C 290.704 684.697 279.298 670.394 268.643 655.287 C 258.937 639.557 250.273 623.449 242.485 606.684 C 239.295 598.016 236.261 589.327 233.363 580.557 C 230.549 570.441 228.033 560.283 225.902 550 C 248.101 550 270.299 550 292.498 550 C 292.498 516.667 292.498 483.333 292.498 450 C 270.174 450 247.85 450 225.526 450 C 227.363 441.316 229.339 432.695 231.467 424.077 C 234.781 413.021 238.453 402.12 242.502 391.311 C 250.287 374.555 258.952 358.456 268.655 342.729 C 279.306 327.635 290.706 313.34 303.047 299.588 C 313.351 290.307 323.945 281.446 334.904 272.947 C 346.334 265.094 357.998 257.701 369.978 250.714 C 382.212 244.835 394.6 239.42 407.228 234.438 C 420.12 230.185 433.106 226.433 446.28 223.154 C 446.28 246.269 446.28 269.383 446.28 292.498 C 479.614 292.498 512.947 292.498 546.28 292.498 C 546.28 268.624 546.28 244.751 546.28 220.877 C 557.566 223.064 568.728 225.637 579.839 228.591 Z"/>
</svg>
