<svg xmlns="http://www.w3.org/2000/svg" viewBox="0 0 1000 1000">
  <path fill="currentColor" d="M 201.167 668.197 L 264.679 603.056 L 471.501 806.078 L 900.343 379.407 L 966.027 444.004 L 471.501 937.445 L 201.167 668.197 L 201.167 668.197 Z"/>
  <path fill-rule="evenodd" fill="currentColor" d="M 559.973 379.063 C 593.137 379.063 617.452 381.005 617.452 411.292 C 617.452 437.19 598.029 442.945 572.419 442.945 L 526.881 442.945 L 526.881 379.063 L 559.973 379.063 L 559.973 379.063 Z M 563.57 264.608 C 585.655 264.608 605.942 265.04 605.942 291.513 C 605.942 311.296 590.979 321.224 570.189 321.224 L 526.881 321.224 L 526.881 264.608 L 563.57 264.608 L 563.57 264.608 Z M 577.67 517.186 C 660.328 517.186 714.714 492.439 714.714 421.291 C 714.714 386.832 696.154 357.265 661.623 348.417 C 681.982 330.073 703.204 304.966 703.204 270.579 C 703.204 207.129 646.156 190.295 574.577 190.295 L 422.57 190.295 L 422.57 517.186 L 577.67 517.186 L 577.67 517.186 Z"/>
  <path fill-rule="evenodd" fill="currentColor" d="M 250.06 406.688 L 184.236 406.688 L 216.464 286.262 L 250.06 406.688 L 250.06 406.688 Z M 152.366 517.186 L 164.308 473.015 L 268.188 473.015 L 280.562 517.186 L 384.442 517.186 L 270.418 190.295 L 164.308 190.295 L 50.285 517.186 L 152.366 517.186 L 152.366 517.186 Z"/>
</svg>
