<svg xmlns="http://www.w3.org/2000/svg" viewBox="0 0 1000 1000">
  <path fill-rule="evenodd" fill="currentColor" stroke="currentColor" stroke-width="0" d="M 415.625 50 C 338.062 50 275 113.062 275 190.625 L 275 218.75 L 106.25 218.75 C 75.2686 218.75 50 244.019 50 275 C 50 305.981 75.2686 331.25 106.25 331.25 L 162.5 331.25 L 162.5 781.25 C 162.5 874.414 238.086 950 331.25 950 L 668.75 950 C 761.914 950 837.5 874.414 837.5 781.25 L 837.5 331.25 L 893.75 331.25 C 924.731 331.25 950 305.981 950 275 C 950 244.019 924.731 218.75 893.75 218.75 L 723.682 218.75 L 723.682 190.625 C 723.682 113.062 660.84 50 583.057 50 L 415.625 50 Z M 415.625 162.5 L 583.057 162.5 C 599.316 162.5 611.182 174.365 611.182 190.625 L 611.182 218.75 L 387.5 218.75 L 387.5 190.625 C 387.5 174.365 399.365 162.5 415.625 162.5 Z M 275 331.25 L 725 331.25 L 725 781.25 C 725 812.891 700.391 837.5 668.75 837.5 L 331.25 837.5 C 299.609 837.5 275 812.891 275 781.25 L 275 331.25 Z M 275 331.25"/>
  <path fill-rule="evenodd" fill="currentColor" stroke="currentColor" stroke-width="0" d="M 443.75 443.75 L 443.75 725 C 443.75 740.601 431.226 753.125 415.625 753.125 C 400.024 753.125 387.5 740.601 387.5 725 L 387.5 443.75 C 387.5 428.149 400.024 415.625 415.625 415.625 C 431.226 415.625 443.75 428.149 443.75 443.75 Z M 443.75 443.75"/>
  <path fill-rule="evenodd" fill="currentColor" stroke="currentColor" stroke-width="0" d="M 612.5 443.75 L 612.5 725 C 612.5 740.601 599.976 753.125 584.375 753.125 C 568.774 753.125 556.25 740.601 556.25 725 L 556.25 443.75 C 556.25 428.149 568.774 415.625 584.375 415.625 C 599.976 415.625 612.5 428.149 612.5 443.75 Z M 612.5 443.75"/>
</svg>
