<svg xmlns="http://www.w3.org/2000/svg" viewBox="0 0 1000 1000">
  <path fill="currentColor" d="M 838.755 411.657 C 842.242 425.987 845.018 440.369 847.13 454.967 C 848.813 469.96 849.758 484.913 850 500 C 848.825 592.86 812.337 681.084 747.487 747.487 C 681.022 812.397 592.762 848.827 500 850 C 308.348 847.576 152.423 691.552 150 500 C 151.175 407.14 187.663 318.916 252.513 252.513 C 318.978 187.603 407.238 151.173 500 150 C 512.343 150.162 524.613 150.796 536.906 151.923 C 548.927 153.34 560.83 155.213 572.705 157.562 C 573.988 157.84 576.553 158.397 576.553 158.397 C 576.553 158.397 579.348 159.039 580.745 159.36 C 584.172 160.231 591.024 161.973 591.024 161.973 C 606.699 144.536 644.574 100.174 663.89 80.917 C 663.89 80.917 663.949 80.8493 663.979 80.8154 C 652.418 76.1072 640.477 72.3589 628.574 68.6357 C 627.226 68.2415 624.53 67.4531 624.53 67.4531 C 624.53 67.4531 622.009 66.7409 620.749 66.3848 C 601.212 61.3075 581.597 57.2655 561.65 54.1885 C 541.125 51.731 520.666 50.3514 500 50 C 380.728 51.5143 267.267 98.3465 181.802 181.802 C 98.4249 267.186 51.5159 380.602 50 500 C 51.5143 619.272 98.3465 732.733 181.802 818.198 C 267.186 901.575 380.602 948.484 500 950 C 619.272 948.486 732.733 901.653 818.198 818.198 C 901.575 732.814 948.484 619.398 950 500 C 949.62 469.747 946.661 439.828 941.02 410.103 C 934.828 381.406 926.261 353.512 915.251 326.299 C 914.74 325.094 913.718 322.684 913.718 322.684 L 913.717 322.683 C 913.701 322.701 913.668 322.739 913.668 322.739 C 885.888 355.712 838.755 411.657 838.755 411.657 Z"/>
  <path fill="currentColor" d="M 292.58 682.832 C 331.538 582.002 412.371 363.452 412.283 363.877 C 412.166 364.435 610.338 267.062 610.281 267.686 C 610.224 268.309 726.023 382.218 726.023 382.218 C 726.264 382.462 635.188 585.178 635.116 584.999 C 635.061 584.861 415.491 669.886 319.445 708.877 L 498.696 528.786 C 519.66 538.311 545.183 534.429 562.407 517.125 C 584.612 494.816 584.612 458.645 562.407 436.336 C 540.202 414.027 504.201 414.027 481.996 436.336 C 464.392 454.022 460.744 480.42 471.044 501.724 L 292.58 682.832 Z"/>
  <path fill="currentColor" d="M 615.94 225.62 L 615.94 198.066 L 704.523 109.068 L 731.949 109.068 L 887.365 265.213 L 887.365 292.767 L 798.783 381.765 L 771.357 381.765 L 615.94 225.62 Z"/>
</svg>
