<svg xmlns="http://www.w3.org/2000/svg" viewBox="0 0 1000 1000">
  <path fill-rule="evenodd" fill="currentColor" d="M 703.96 196.764 C 674.891 227.077 674.891 276.224 703.96 306.537 C 733.03 336.85 780.161 336.85 809.23 306.537 C 838.3 276.224 838.3 227.077 809.23 196.764 C 780.161 166.451 733.03 166.451 703.96 196.764 Z M 416.39 261.336 C 406.025 309.182 407.044 358.188 419.149 405.567 C 419.475 406.357 419.802 407.147 420.129 407.937 C 420.307 408.36 420.663 409.206 420.663 409.206 C 420.663 409.206 418.302 411.668 417.122 412.899 C 294.748 540.508 172.374 668.116 50 795.724 C 50.1628 813.519 50.3257 831.314 50.4885 849.108 C 50.4963 849.948 50.5041 850.787 50.5119 851.627 C 50.5173 852.237 50.5228 852.848 50.5283 853.458 C 50.5309 853.455 50.5335 853.453 50.5361 853.45 C 51.6339 852.305 52.7317 851.16 53.8295 850.016 C 153.26 746.332 252.69 642.648 352.121 538.965 C 361.095 548.323 370.07 557.681 379.044 567.04 C 270.49 680.237 161.935 793.435 53.3807 906.633 C 52.6222 907.424 51.8636 908.215 51.105 909.006 C 51.0828 909.029 51.0606 909.052 51.0384 909.075 C 51.0425 909.502 51.0465 909.929 51.0505 910.356 C 51.0549 910.825 51.0592 911.294 51.0635 911.763 C 51.0693 912.402 51.075 913.041 51.0808 913.68 C 51.1704 923.486 50 950 50 950 C 50 950 174.367 947.699 235.876 950 C 236.282 918.888 236.688 887.777 237.094 856.665 C 266.934 857.208 296.773 857.752 326.613 858.295 C 325.273 826.742 323.933 795.189 322.593 763.636 C 323.651 762.947 324.698 762.359 325.83 761.813 C 335.164 758.994 344.928 760.214 354.513 760.864 C 367.751 762.258 380.818 764.823 394.069 766.128 C 401.314 766.451 408.574 766.397 415.336 763.366 C 416.038 733.093 416.741 702.82 417.443 672.547 C 458.032 672.057 498.622 671.567 539.212 671.077 C 560.071 649.326 580.93 627.574 601.79 605.823 C 602.97 604.592 605.331 602.13 605.331 602.13 C 605.331 602.13 605.797 602.341 606.03 602.447 C 606.362 602.597 606.694 602.747 607.026 602.896 C 653.304 616.111 701.242 617.304 748.025 606.172 C 795.624 593.087 838.248 567.758 873.424 531.892 C 922.635 477.169 949.296 407.476 950 332.48 C 947.255 256.829 918.367 187.305 868.063 132.874 C 815.208 81.1037 748.173 51.8945 675.609 50 C 603.69 51.699 537.201 80.4065 485.376 132.404 C 452.06 168.828 428.555 212.622 416.39 261.336 Z"/>
</svg>
