<svg xmlns="http://www.w3.org/2000/svg" viewBox="0 0 1000 1000">
  <path fill-rule="evenodd" fill="currentColor" d="M 568.335 50.0027 C 566.518 50.0189 564.704 50.0714 562.897 50.1857 C 562.505 50.2282 562.116 50.2869 561.725 50.3322 L 237.811 50.3322 C 134.084 50.3321 50 134.402 50 238.089 L 50 762.262 C 50 865.949 134.084 950 237.811 950 L 762.189 950 C 865.916 950 950 865.949 950 762.262 L 950 238.089 C 950 134.402 865.916 50.3321 762.189 50.3321 L 576.63 50.3321 C 573.87 50.108 571.1 49.979 568.335 50.0027 Z M 237.811 88.4581 L 458.856 88.4581 C 428.695 108.363 402.677 134.734 383.179 165.186 C 340.362 220.303 354.37 294.954 372.98 356.512 C 376.482 369.372 379.533 385.705 367.633 394.381 C 362.311 398.262 301.585 430.539 292.139 435.454 C 296.478 444.47 315.25 488.315 319.073 496.496 C 325.151 493.208 400.572 456.243 407.33 452.751 C 436.918 522.681 510.354 691.208 547.736 802.749 C 550.778 815.435 557.791 832.314 551.416 844.078 C 506.563 863.606 476.368 789.38 420.99 843.529 C 405.148 860.043 408.544 889.048 421.227 911.819 L 237.811 911.819 C 154.564 911.819 88.1958 845.477 88.1958 762.262 L 88.1958 238.089 C 88.1958 154.874 154.564 88.4581 237.811 88.4581 Z M 632.275 88.4581 L 762.189 88.4581 C 845.436 88.4581 911.877 154.874 911.877 238.089 L 911.877 762.262 C 911.877 845.477 845.436 911.819 762.189 911.819 L 573.663 911.819 C 578.518 908.42 583.214 905.006 587.726 901.642 C 646.134 858.425 666.416 780.004 651.483 711.031 C 639.069 643.622 620.843 603.355 608.215 569.344 C 597.539 542.188 534.885 395.708 531.989 386.346 C 565.295 368.592 604.412 350.627 637.714 332.864 C 628.483 312.219 619.117 291.634 609.827 271.016 C 576.341 287.892 539.265 305.085 505.75 321.9 C 487.021 272.528 460.577 219.854 473.138 165.516 C 477.718 145.191 497.12 147.306 511.829 154.79 C 548.175 171.279 601.466 175.003 624.219 135.205 C 635.129 121.585 637.289 103.867 632.275 88.4581 Z"/>
</svg>
