<svg xmlns="http://www.w3.org/2000/svg" viewBox="0 0 1000 1000">
  <path fill-rule="evenodd" fill="currentColor" d="M 417.296 78.125 C 402.401 78.125 388.163 84.0391 377.649 94.553 L 281.929 190.273 L 221.036 190.273 C 128.82 190.273 52.8135 266.28 52.8135 358.496 L 52.8135 751.015 C 52.8135 843.231 128.82 919.237 221.036 919.237 L 781.778 919.237 C 873.993 919.237 950 843.231 950 751.015 L 950 358.496 C 950 266.28 873.993 190.273 781.778 190.273 L 720.884 190.273 L 625.164 94.553 C 614.65 84.0391 600.413 78.125 585.518 78.125 L 417.296 78.125 Z M 440.514 190.273 L 562.3 190.273 L 658.02 285.994 C 668.534 296.508 682.772 302.422 697.666 302.422 L 781.778 302.422 C 813.757 302.422 837.852 326.516 837.852 358.496 L 837.852 751.015 C 837.852 782.995 813.757 807.089 781.778 807.089 L 221.036 807.089 C 189.056 807.089 164.962 782.995 164.962 751.015 L 164.962 358.496 C 164.962 326.516 189.056 302.422 221.036 302.422 L 305.147 302.422 C 320.042 302.422 334.279 296.508 344.793 285.994 L 440.514 190.273 Z M 440.514 190.273"/>
  <path fill-rule="evenodd" fill="currentColor" stroke="currentColor" stroke-width="0" d="M 496.28 312.456 C 376.475 312.456 278.376 410.556 278.376 530.361 C 278.376 650.165 376.475 748.265 496.28 748.265 C 616.085 748.265 714.184 650.165 714.184 530.361 C 714.184 410.556 616.085 312.456 496.28 312.456 Z M 496.28 421.409 C 557.14 421.409 605.232 469.501 605.232 530.361 C 605.232 591.221 557.14 639.313 496.28 639.313 C 435.42 639.313 387.328 591.221 387.328 530.361 C 387.328 469.501 435.42 421.409 496.28 421.409 Z M 496.28 421.409"/>
</svg>
