<svg xmlns="http://www.w3.org/2000/svg" viewBox="0 0 1000 1000">
  <path fill-rule="evenodd" fill="currentColor" d="M 331.25 50 C 253.687 50 190.625 117.266 190.625 200 C 190.625 282.969 253.687 350 331.25 350 C 409.033 350 471.875 282.969 471.875 200 C 471.875 117.266 409.033 50 331.25 50 Z M 668.75 230 C 591.187 230 528.125 297.266 528.125 380 C 528.125 462.969 591.187 530 668.75 530 C 746.533 530 809.375 462.969 809.375 380 C 809.375 297.266 746.533 230 668.75 230 Z M 218.75 410 C 125.366 410 50 490.391 50 590 L 50 710 C 50 743.281 75.0488 770 106.25 770 L 335.645 770 C 335.645 647.422 424.414 545.938 536.914 535.625 C 503.735 503.516 481.543 460.156 474.512 413.047 C 464.624 411.172 454.297 410 443.75 410 L 218.75 410 Z M 556.25 590 C 462.866 590 387.5 670.391 387.5 770 L 387.5 890 C 387.5 923.281 412.549 950 443.75 950 L 893.75 950 C 924.951 950 950 923.281 950 890 L 950 770 C 950 670.391 874.853 590 781.25 590 L 556.25 590 Z M 556.25 590"/>
</svg>
