<svg xmlns="http://www.w3.org/2000/svg" viewBox="0 0 1000 1000">
  <path fill="currentColor" d="M 827.031 214.522 C 830.711 216.985 834.04 219.69 837.126 222.871 C 839.954 226.309 842.182 229.91 844.008 233.973 C 845.057 238.875 845.291 243.523 844.706 248.51 C 843.649 253.369 842.002 257.855 839.841 262.333 C 827.888 283.037 815.935 303.74 803.982 324.444 C 801.458 328.215 798.69 331.627 795.424 334.782 C 791.881 337.666 788.178 339.896 783.972 341.687 C 779.149 342.606 774.575 342.748 769.699 342.111 C 764.949 341.028 760.553 339.385 756.171 337.255 C 739.051 327.371 743.505 331.948 726.386 322.064 C 726.384 322.065 726.383 322.065 726.382 322.065 C 726.38 322.066 726.379 322.067 726.378 322.069 C 726.377 322.069 726.377 322.07 726.377 322.07 C 704.594 360.16 684.064 398.862 665.759 438.75 C 647.963 479.405 648.211 494.629 637.039 537.595 C 636.894 537.947 636.749 538.3 636.604 538.652 C 636.131 539.447 635.629 540.206 635.095 540.962 C 635.094 540.963 635.093 540.965 635.093 540.966 C 643.461 545.798 651.83 550.629 660.199 555.461 C 661.07 555.964 661.941 556.467 662.812 556.97 C 664.871 558.158 666.929 559.347 668.988 560.535 C 684.131 569.278 699.275 578.022 714.418 586.765 C 718.202 589.43 721.485 592.385 724.47 595.929 C 727.127 599.727 729.135 603.662 730.726 608.017 C 731.524 612.578 731.755 616.986 731.352 621.604 C 730.54 626.165 729.175 630.37 727.229 634.576 C 712.586 659.938 697.943 685.3 683.301 710.662 C 680.635 714.446 677.68 717.729 674.136 720.714 C 670.339 723.371 666.403 725.379 662.048 726.97 C 657.487 727.769 653.079 727.999 648.46 727.596 C 643.9 726.784 639.696 725.419 635.49 723.473 C 575.753 688.984 456.28 620.007 456.28 620.007 L 281.18 904.403 L 226.951 950 L 239.316 880.233 L 400.917 588.043 C 400.917 588.043 281.678 519.2 222.059 484.779 C 218.275 482.113 214.993 479.158 212.008 475.614 C 209.35 471.817 207.342 467.882 205.751 463.527 C 204.953 458.965 204.723 454.557 205.126 449.939 C 205.937 445.378 207.303 441.174 209.248 436.968 C 223.891 411.606 238.534 386.244 253.177 360.881 C 255.842 357.098 258.797 353.815 262.341 350.83 C 266.139 348.173 270.074 346.164 274.429 344.574 C 278.99 343.775 283.399 343.545 288.017 343.948 C 292.578 344.76 296.782 346.125 300.988 348.07 C 325.68 362.327 350.373 376.583 375.066 390.84 C 377.031 391.974 378.996 393.108 380.961 394.243 C 380.961 394.241 380.962 394.24 380.963 394.239 C 381.345 393.392 381.746 392.577 382.199 391.766 C 382.435 391.468 382.671 391.17 382.907 390.872 C 412.271 363.379 423.722 360.036 447.988 327.949 C 476.164 288.809 500.705 247.426 524.888 205.741 C 524.888 205.74 524.888 205.74 524.889 205.739 C 524.889 205.737 524.889 205.736 524.89 205.734 C 524.889 205.732 524.889 205.731 524.888 205.73 C 508.303 196.154 512.275 198.804 495.69 189.229 C 491.692 186.462 488.169 183.418 484.969 179.749 C 482.119 175.77 480.063 171.661 478.525 167.012 C 477.968 162.572 477.963 158.304 478.554 153.864 C 479.511 149.501 480.95 145.449 482.879 141.418 C 494.832 120.714 506.785 100.011 518.739 79.3069 C 521.127 75.9284 523.793 72.9906 526.922 70.279 C 530.233 67.8183 533.686 65.7905 537.423 64.0403 C 542.355 62.687 547.11 62.07 552.23 62.2589 C 557.286 62.9704 561.897 64.3908 566.549 66.496 C 667.42 124.734 726.16 156.284 827.031 214.522 Z"/>
</svg>
