<svg xmlns="http://www.w3.org/2000/svg" viewBox="0 0 1000 1000">
  <path fill="currentColor" d="M 556.25 590"/>
  <g>
    <path fill="currentColor" d="M 359.717 501.093 C 243.27 501.093 149.292 601.338 149.292 725.547 L 149.292 875.182 C 149.292 916.682 180.527 950 219.433 950 L 780.567 950 C 819.473 950 850.708 916.682 850.708 875.182 L 850.708 725.547 C 850.708 601.338 757.003 501.093 640.283 501.093 L 359.717 501.093 Z"/>
    <path fill="currentColor" d="M 500 52.1865 C 403.282 52.1865 324.646 136.065 324.646 239.231 C 324.646 342.69 403.282 426.275 500 426.275 C 596.993 426.275 675.354 342.69 675.354 239.231 C 675.354 136.065 596.993 52.1865 500 52.1865 Z"/>
  </g>
</svg>
