<svg xmlns="http://www.w3.org/2000/svg" viewBox="0 0 1000 1000">
  <g>
    <path fill-rule="evenodd" fill="currentColor" stroke="currentColor" stroke-width="0" d="M 376.508 539.225 C 376.508 539.225 378.238 539.896 379.103 540.232 C 387.448 543.8 395.389 547.9 403.137 552.63 C 410.776 557.812 417.912 563.448 424.742 569.661 C 431.621 577.264 437.779 585.225 443.378 593.819 C 448.426 602.55 452.682 611.484 456.275 620.912 C 456.574 621.794 457.174 623.557 457.174 623.557 C 457.174 623.557 411.391 637.791 388.5 644.909 C 387.741 645.145 386.221 645.618 386.221 645.618 C 386.221 645.618 383.124 646.58 381.576 647.062 C 366.486 651.753 351.395 656.445 336.305 661.137 C 349.262 621.846 362.219 582.554 375.176 543.263 C 375.62 541.917 376.063 540.571 376.507 539.224 C 376.507 539.225 376.508 539.225 376.508 539.225 Z M 741.968 180.958 C 766.579 205.57 791.191 230.181 815.802 254.792 C 815.802 289.464 815.802 324.137 815.802 358.809 C 743.159 432.476 670.516 506.143 597.873 579.81 C 567.236 589.336 536.599 598.861 505.962 608.387 C 504.538 608.83 501.689 609.715 501.689 609.715 C 501.689 609.715 501.389 607.838 501.239 606.9 C 498.445 592.083 493.835 577.937 487.32 564.337 C 480.224 550.847 471.514 538.581 461.199 527.36 C 450.661 517.761 439.326 509.547 426.87 502.603 C 415.995 497.186 404.715 492.462 392.846 489.677 C 402.132 461.518 411.418 433.358 420.704 405.199 C 494.427 330.452 568.15 255.705 641.873 180.958 C 675.238 180.958 708.603 180.958 741.968 180.958 Z"/>
    <path fill="currentColor" stroke="currentColor" stroke-width="0" d="M 772.832 50 L 685.526 137.305 L 751.005 137.305 C 756.803 137.305 762.259 139.522 766.352 143.615 L 852.975 230.408 C 857.068 234.501 859.455 239.957 859.455 245.755 L 859.455 315.156 L 950 224.611 L 950 139.863 L 860.137 50 L 772.832 50 Z"/>
  </g>
  <path fill="currentColor" d="M 935.697 895.256 C 934.375 917.407 918.02 920.711 902.844 918.532 C 882.718 915.643 880.385 909.25 877.772 890.646 C 872.632 854.055 862.258 804.363 836.844 776.762 C 796.63 738.162 738.735 720.125 683.573 719.639 C 598.398 718.89 533.456 772.246 470.268 822.891 C 367.72 905.083 214.406 949.139 143.069 932.353 C 79.342 917.359 50.881 886.198 45.6341 851.344 C 29.9842 747.384 160.438 692.502 251.963 683.421 C 271.225 681.632 280.948 689.845 283.368 703.912 C 285.788 717.98 280.752 736.675 261.867 740.995 C 210.585 747.864 110.59 768.91 109.487 822.713 C 108.702 861.023 142.236 874.705 171.167 876.627 C 293.446 884.753 398.252 796.786 502.298 723.672 C 579.318 669.55 667.083 648.42 745.883 663.608 C 799.824 674.004 862.973 705.83 897.018 757.09 C 935.656 815.265 937.019 873.106 935.697 895.256 Z"/>
</svg>
