<svg xmlns="http://www.w3.org/2000/svg" viewBox="0 0 1000 1000">
  <path fill-rule="evenodd" fill="currentColor" d="M 164.632 50 L 535.368 50 L 835.368 350 L 835.368 950 L 164.632 950 L 164.632 50 Z M 445.617 150 C 447.078 150 449.999 150 449.999 150 L 450 150 C 450 150 450 152.536 450 153.805 C 450 248.949 450 344.094 450 439.238 C 450.074 439.238 450.148 439.238 450.222 439.238 C 543.779 439.238 637.337 439.238 730.895 439.238 C 732.386 439.238 735.368 439.238 735.368 439.238 L 735.368 439.257 C 735.368 439.257 735.368 441.578 735.368 442.738 C 735.368 578.492 735.368 714.246 735.368 850 C 578.456 850 421.544 850 264.632 850 C 264.632 616.667 264.632 383.333 264.632 150 C 324.96 150 385.289 150 445.617 150 Z M 550 206.055 C 550 206.055 551.792 207.846 552.688 208.741 C 596.187 252.24 639.686 295.739 683.185 339.238 C 683.182 339.238 683.177 339.238 683.177 339.238 C 683.177 339.238 679.397 339.238 677.507 339.238 C 635.032 339.238 592.558 339.238 550.083 339.238 C 550.055 339.238 550.028 339.238 550 339.238 C 550 296.741 550 254.243 550 211.746 C 550 209.85 550 206.059 550 206.059 L 550 206.055 Z"/>
</svg>
