<svg xmlns="http://www.w3.org/2000/svg" viewBox="0 0 1000 1000">
  <path fill="currentColor" d="M 357.794 115.807 L 950 115.807 L 950 215.807 L 357.794 215.807 L 357.794 115.807 Z"/>
  <path fill="currentColor" d="M 357.794 440.019 L 950 440.019 L 950 540.019 L 357.794 540.019 L 357.794 440.019 Z"/>
  <path fill="currentColor" d="M 357.794 764.231 L 950 764.231 L 950 864.231 L 357.794 864.231 L 357.794 764.231 Z"/>
  <path fill="currentColor" d="M 46.5195 862.233 C 45.4753 921.312 87.353 950 142.695 950 C 206.556 950 248.049 922.027 248.049 866.629 C 248.049 843.822 235.574 825.961 213.975 817.497 C 233.21 808.045 241.619 792.052 241.619 770.344 C 241.619 729.84 206.556 703.79 150.17 703.79 C 100.488 703.79 56.302 727.092 53.9388 781.83 L 117.415 781.83 C 119.448 764.958 131.594 756.494 148.136 756.494 C 161.985 756.494 175.835 762.265 175.835 777.873 C 175.835 800.241 150.499 803.648 133.957 802.274 L 133.957 843.822 C 150.829 843.822 177.813 842.833 177.813 869.927 C 177.813 883.666 167.042 897.351 146.432 897.351 C 135.606 897.351 126.868 893.998 121.097 888.008 C 115.381 881.853 112.359 873.059 112.688 862.233 L 46.5195 862.233 L 46.5195 862.233 Z"/>
  <path fill="currentColor" d="M 247.118 618.897 L 247.118 561.522 L 136.708 561.522 C 149.183 552.673 167.429 543.496 184.631 532.559 C 215.682 513.159 247.777 495.792 247.777 453.53 C 247.777 397.913 201.503 376.315 152.206 376.315 C 90.4335 376.315 52.2929 404.673 51.2487 474.963 L 114.395 474.963 C 114.065 451.826 121.814 428.964 148.853 428.964 C 163.032 428.964 177.541 437.867 177.541 453.2 C 177.541 493.044 115.109 509.422 75.2652 551.3 C 56.3598 570.974 45.5332 591.254 46.9071 618.897 L 247.118 618.897 L 247.118 618.897 Z"/>
  <path fill="currentColor" d="M 209.908 45.2575 L 156.545 45.2575 C 148.796 86.4756 121.756 99.2808 84.6601 99.9402 L 84.6601 147.918 L 139.673 147.918 L 139.673 286.356 L 209.908 286.356 L 209.908 45.2575 L 209.908 45.2575 Z"/>
</svg>
