<svg xmlns="http://www.w3.org/2000/svg" viewBox="0 0 1000 1000">
  <path fill-rule="evenodd" fill="currentColor" stroke="currentColor" stroke-width="0" d="M 500 103.427 C 714.97 103.427 889.237 277.694 889.237 492.664 C 889.237 707.634 714.97 881.901 500 881.901 C 285.03 881.901 110.763 707.634 110.763 492.664 C 110.763 277.694 285.03 103.427 500 103.427 Z M 500 50 C 748.528 50 950 251.472 950 500 C 950 748.528 748.528 950 500 950 C 251.472 950 50 748.528 50 500 C 50 251.472 251.472 50 500 50 Z"/>
  <path fill="currentColor" d="M 779.492 318.687 C 797.699 341.969 790.231 369.552 776.476 386.672 L 406.535 751.174 C 390.096 763.708 375.301 767.425 359.843 764.194 C 344.384 760.963 336.203 752.04 327.918 740.168 L 214.822 540.153 C 203.769 513.121 209.244 490.101 231.479 473.374 C 256.726 454.381 290.122 474.838 301.87 490.933 L 382.84 634.133 L 706.29 315.44 C 728.017 298.872 761.284 295.405 779.492 318.687 Z"/>
</svg>
