<svg xmlns="http://www.w3.org/2000/svg" viewBox="0 0 1000 1000">
  <path fill-rule="evenodd" fill="currentColor" d="M 810.989 686.175 L 743.193 686.691 L 775.7 512.102 L 810.989 686.175 L 810.989 686.175 Z M 711.046 840.971 L 723.016 779.356 L 830.045 778.542 L 842.971 839.967 L 950 839.153 L 830.604 377.956 L 721.352 378.788 L 605.907 841.772 L 711.046 840.971 L 711.046 840.971 Z"/>
  <path fill-rule="evenodd" fill="currentColor" d="M 359.119 610.707 L 257.422 610.699 L 307.73 358.897 L 359.119 610.707 L 359.119 610.707 Z M 207.713 841.742 L 226.352 749.384 L 386.843 749.398 L 405.771 841.758 L 566.263 841.772 L 391.498 158.242 L 227.561 158.228 L 50 841.729 L 207.713 841.742 L 207.713 841.742 Z"/>
</svg>
