<svg xmlns="http://www.w3.org/2000/svg" viewBox="0 0 1000 1000">
  <path fill="currentColor" stroke="currentColor" stroke-width="0" d="M 571.418 543.311"/>
  <path fill="currentColor" stroke="currentColor" stroke-width="0" d="M 571.418 543.311 L 472.207 559.748 C 458.45 562.027 445.575 552.812 443.296 539.054 C 441.016 525.297 450.231 512.422 463.989 510.143 L 563.199 493.706 C 576.957 491.427 589.832 500.642 592.111 514.399 C 594.39 528.157 585.175 541.032 571.418 543.311 Z"/>
  <path fill="currentColor" stroke="currentColor" stroke-width="0" d="M 560.047 444.101 L 460.836 460.537 C 447.079 462.817 434.204 453.602 431.925 439.844 C 429.645 426.086 438.86 413.212 452.618 410.932 L 551.828 394.496 C 565.586 392.217 578.461 401.432 580.74 415.189 C 583.019 428.947 573.804 441.822 560.047 444.101 Z"/>
  <path fill="currentColor" stroke="currentColor" stroke-width="0" d="M 538.545 344.891 L 439.334 361.327 C 425.577 363.607 412.702 354.391 410.423 340.634 C 408.143 326.876 417.358 314.001 431.116 311.722 L 530.326 295.286 C 544.084 293.006 556.959 302.221 559.238 315.979 C 561.517 329.737 552.302 342.611 538.545 344.891 Z"/>
  <path fill="currentColor" stroke="currentColor" stroke-width="0" d="M 386.366 457.305"/>
  <path fill-rule="evenodd" fill="currentColor" stroke="currentColor" stroke-width="0" d="M 247.469 279.525 C 251.528 305.958 253.745 332.756 256.718 359.329 C 219.133 365.673 181.336 371.299 143.939 378.684 C 141.245 359.049 137.533 339.526 134.203 319.99 C 132.088 303.291 136.957 287.223 148.458 274.833 C 161.892 261.91 179.561 255.694 197.547 252.127 C 209.062 250.185 220.964 248.898 232.272 245.957 C 238.881 256.382 243.92 267.718 247.469 279.525 Z M 855 699 C 857.399 715.624 852.799 734.017 844.664 748.517 C 833.417 766.104 815.925 775.68 795.756 779.524 C 736.641 789.367 677.165 799.099 618.653 812.143 C 621.523 804.559 622.405 795.872 623.596 787.89 C 624.585 778.22 625.149 768.669 624.771 758.945 C 623.153 740.16 619.039 721.606 615.224 703.164 C 614.015 697.406 605.684 675.285 609.51 670.389 C 609.612 670.436 609.714 670.482 609.815 670.529 C 621.069 672.653 636.275 667.107 647.41 665.127 C 711.763 652.861 775.932 639.678 840 626 C 845.037 650.326 850.029 674.661 855 699 Z M 678.761 170.549 C 673.82 161.215 667.663 152.662 661.096 144.424 C 652.887 135.052 643.985 126.639 634.205 118.927 C 617.518 108.117 599.709 100.188 580.448 95.2354 C 560.925 91.1749 541.559 90.4396 521.765 92.7607 C 406.02 111.937 290.274 131.112 174.529 150.288 C 170.441 151.295 166.516 152.461 162.541 153.85 C 161.385 154.413 160.229 154.977 159.072 155.541 C 159.068 155.542 159.064 155.544 159.061 155.545 C 157.619 155.976 156.178 156.407 154.737 156.838 C 137.874 162.977 122.31 171.314 107.929 182.052 C 94.0058 193.386 82.1221 206.447 72.0381 221.294 C 63.1416 237.126 56.7198 253.791 52.8301 271.532 C 49.6964 289.425 49.3037 307.282 51.4873 325.309 C 59.6201 374.397 67.7529 423.486 75.8857 472.574 C 140.663 462.811 205.441 453.048 270.219 443.284 C 278.465 489.277 286.711 535.27 294.958 581.263 C 307.25 649.821 319.542 718.379 331.834 786.937 C 336.012 806.366 343.015 824.557 353.12 841.675 C 364.018 858.311 377.253 872.623 392.864 884.931 C 409.547 895.736 427.364 903.65 446.618 908.599 C 466.085 912.649 485.564 913.407 505.304 911.097 C 604.514 894.66 703.724 878.224 802.935 861.787 C 822.363 857.607 840.555 850.606 857.672 840.5 C 874.309 829.603 888.618 816.366 900.929 800.758 C 911.734 784.072 919.649 766.259 924.598 747.003 C 928.648 727.537 929.405 708.056 927.095 688.317 C 918.877 638.712 910.659 589.107 902.44 539.502 C 884.923 542.404 867.405 545.307 849.888 548.209 C 847.567 548.593 845.247 548.977 842.927 549.361 C 841.873 549.536 840.82 549.711 839.767 549.886 C 810.773 554.689 781.78 559.493 752.786 564.296 C 752.747 564.058 752.707 563.819 752.668 563.581 C 752.464 562.349 752.26 561.117 752.056 559.885 C 744.471 514.108 736.887 468.331 729.303 422.554 C 729.085 421.238 728.649 418.607 728.649 418.607 L 728.505 418.647 C 728.505 418.647 725.692 419.411 724.285 419.793 C 685.996 430.132 672.383 433.808 631.081 444.96 C 638.336 488.747 652.845 576.321 652.845 576.321 C 652.845 576.321 523.382 602.302 505.6 605.248 C 513.818 654.853 522.036 704.458 530.254 754.063 C 530.768 760.711 530.529 767.083 529.371 773.657 C 527.632 780.103 525.134 785.942 521.758 791.705 C 517.392 796.76 512.671 801.01 507.121 804.74 C 501.278 807.95 495.327 810.231 488.867 811.887 C 482.219 812.401 475.847 812.162 469.272 811.004 C 462.827 809.265 456.988 806.767 451.226 803.391 C 446.171 799.024 441.92 794.304 438.189 788.754 C 434.981 782.911 432.699 776.96 431.044 770.5 C 403.735 605.666 376.427 440.833 349.118 275.999 C 347.468 267.85 345.46 259.837 343.064 251.874 C 340.186 244.307 336.987 236.926 333.431 229.652 C 332.799 228.505 332.168 227.357 331.536 226.21 C 331.536 226.21 331.535 226.209 331.535 226.209 C 331.543 226.208 331.551 226.207 331.56 226.206 C 333.403 225.9 335.247 225.595 337.091 225.289 C 404.128 214.183 471.164 203.077 538.201 191.971 C 544.868 191.454 551.203 191.693 557.793 192.853 C 564.24 194.592 570.08 197.089 575.844 200.467 C 580.898 204.834 585.147 209.554 588.878 215.104 C 592.087 220.947 594.368 226.898 596.025 233.357 C 596.543 236.485 597.061 239.612 597.579 242.739 C 597.752 243.781 598.097 245.865 598.097 245.865 C 598.097 245.865 662.196 186.003 678.761 170.549 Z"/>
  <path fill="currentColor" stroke="currentColor" stroke-width="0" d="M 724.226 656.021"/>
  <path fill="currentColor" stroke="currentColor" stroke-width="0" d="M 823.991 131.216 C 838.729 145.969 853.467 160.721 868.205 175.473 C 868.205 196.256 868.205 217.039 868.205 237.822 C 824.704 281.978 781.203 326.135 737.702 370.291 C 719.356 376.001 701.009 381.711 682.663 387.421 C 681.81 387.686 680.104 388.217 680.104 388.217 C 680.104 388.217 679.924 387.092 679.834 386.529 C 678.161 377.648 675.401 369.169 671.499 361.017 C 667.25 352.931 662.034 345.578 655.857 338.852 C 649.547 333.099 642.759 328.175 635.3 324.013 C 628.788 320.766 622.033 317.934 614.925 316.265 C 620.486 299.386 626.047 282.507 631.607 265.628 C 675.755 220.824 719.903 176.02 764.051 131.216 C 784.031 131.216 804.011 131.216 823.991 131.216 Z"/>
  <path fill="currentColor" stroke="currentColor" stroke-width="0" d="M 605.142 345.964 C 605.142 345.964 606.177 346.367 606.695 346.568 C 611.693 348.707 616.448 351.164 621.088 354 C 625.662 357.106 629.936 360.484 634.026 364.208 C 638.145 368.765 641.833 373.537 645.185 378.689 C 648.208 383.922 650.757 389.277 652.909 394.928 C 653.088 395.457 653.447 396.514 653.447 396.514 C 653.447 396.514 626.031 405.046 612.323 409.312 C 611.868 409.454 610.958 409.737 610.958 409.737 C 610.958 409.737 609.103 410.314 608.176 410.603 C 599.14 413.415 590.103 416.227 581.067 419.039 C 588.826 395.488 596.585 371.936 604.344 348.385 C 604.61 347.578 604.875 346.771 605.141 345.964 C 605.141 345.964 605.142 345.964 605.142 345.964 Z"/>
  <path fill="currentColor" stroke="currentColor" stroke-width="0" d="M 842.473 52.7192 L 790.191 105.05 L 829.402 105.05 C 832.874 105.05 836.142 106.379 838.593 108.833 L 890.465 160.857 C 892.916 163.311 894.346 166.581 894.346 170.056 L 894.346 211.656 L 948.567 157.382 L 948.567 106.584 L 894.754 52.7192 L 842.473 52.7192 Z"/>
</svg>
