<svg xmlns="http://www.w3.org/2000/svg" viewBox="0 0 1000 1000">
  <path fill-rule="evenodd" fill="currentColor" d="M 768.412 128.833 L 756.716 132.006 L 745.324 135.32 L 734.195 138.792 L 723.176 142.476 L 712.537 146.287 L 702.001 150.329 L 691.772 154.532 L 681.754 158.939 L 671.894 163.578 L 662.317 168.397 L 652.946 173.438 L 643.774 178.711 L 634.784 184.233 L 626.031 189.974 L 617.489 195.956 L 609.087 202.233 L 600.923 208.743 L 592.93 215.539 L 585.114 222.626 L 577.485 230.001 L 570.04 237.671 L 562.742 245.684 L 555.622 254.013 L 548.673 262.673 L 541.903 271.661 L 535.279 281.031 L 528.804 290.785 L 522.511 300.888 L 519.342 306.308 C 518.892 468.38 518.297 661.333 518.469 825.982 L 524.76 818.321 L 525.169 817.836 L 532.881 808.957 L 533.308 808.479 L 541.278 799.803 L 541.718 799.337 L 549.94 790.873 L 550.393 790.42 L 558.857 782.179 L 559.328 781.734 L 568.029 773.727 L 568.513 773.293 L 577.443 765.53 L 577.944 765.107 L 587.096 757.598 L 587.616 757.184 L 596.983 749.941 L 597.517 749.54 L 607.092 742.571 L 607.647 742.18 L 617.423 735.497 L 617.997 735.117 L 627.966 728.731 L 628.559 728.363 L 638.715 722.284 L 639.327 721.931 L 649.661 716.169 L 650.296 715.828 L 660.804 710.393 L 661.459 710.067 L 672.131 704.971 L 672.806 704.662 L 683.635 699.914 L 684.337 699.62 L 695.317 695.233 L 696.034 694.96 L 707.158 690.94 L 707.903 690.685 L 719.164 687.046 L 719.929 686.814 L 731.319 683.566 L 732.104 683.357 L 743.616 680.51 L 744.422 680.326 L 756.049 677.89 C 760.297 677.198 769.476 675.601 773.332 675.072 C 774.471 497.007 775.904 299.443 776.838 126.701 L 768.412 128.833 Z M 886.202 761.956 C 885.337 767.006 883.877 771.579 881.562 776.158 C 879.047 778.53 876.352 780.528 873.523 782.51 C 867.012 784.669 860.217 785.31 853.407 785.883 C 845.589 786.779 837.77 787.675 829.952 788.571 C 812.212 791.428 794.544 794.597 776.919 798.092 C 759.447 802.088 742.076 806.415 724.772 811.088 C 723.511 811.453 722.25 811.819 720.988 812.185 C 721.932 812.082 722.877 811.98 723.821 811.878 C 726.654 811.572 729.488 811.265 732.321 810.959 C 732.432 810.948 732.542 810.937 732.652 810.926 C 737.386 810.483 742.119 810.04 746.852 809.598 C 746.959 809.588 747.066 809.579 747.173 809.569 C 751.864 809.197 756.556 808.825 761.247 808.452 C 761.349 808.445 761.45 808.437 761.552 808.43 C 766.194 808.123 770.835 807.816 775.477 807.51 C 775.577 807.504 775.677 807.497 775.777 807.491 C 780.363 807.248 784.95 807.006 789.536 806.763 C 789.631 806.758 789.725 806.754 789.82 806.75 C 794.344 806.566 798.868 806.382 803.391 806.198 C 803.485 806.195 803.578 806.192 803.671 806.188 C 808.126 806.062 812.581 805.935 817.036 805.809 C 817.126 805.807 817.215 805.805 817.305 805.803 C 821.684 805.729 826.063 805.656 830.442 805.583 C 830.571 805.582 830.699 805.581 830.828 805.58 C 839.332 805.58 847.836 805.581 856.341 805.581 C 856.505 805.583 856.67 805.584 856.835 805.586 C 864.957 805.761 873.078 805.936 881.2 806.11 C 881.357 806.116 881.514 806.121 881.671 806.126 C 888.58 806.416 895.49 806.707 902.399 806.997 C 902.469 773.339 902.538 739.681 902.607 706.022 C 902.607 706.016 902.607 706.009 902.607 706.002 C 902.796 642.359 902.985 578.717 903.174 515.074 C 903.363 451.8 903.553 388.526 903.742 325.252 C 903.812 291.982 903.883 258.713 903.953 225.443 C 903.307 225.414 902.662 225.384 902.016 225.354 C 896.745 225.048 891.474 224.741 886.202 224.435 C 886.202 403.608 886.202 582.782 886.202 761.956 Z M 822.472 191.228 C 822.472 191.228 825.138 191.267 826.471 191.287 C 830.918 191.354 835.365 191.421 839.812 191.488 C 839.942 191.491 840.072 191.494 840.202 191.497 C 840.202 374.671 840.202 557.845 840.202 741.019 C 766.146 750.574 639.954 785.549 595.185 811.486 C 610.7 796.545 616.7 792.649 629.207 783.24 C 670.121 754.03 714.144 734.063 763.304 723.245 C 767.777 722.261 797.115 719.834 807.763 715.2 C 815.142 710.789 817.174 703.623 818.068 695.417 C 819.721 680.245 818.715 663.305 819.424 646.794 C 820.492 489.283 821.928 349.684 822.826 192.172 M 220.306 130.975 L 232.002 134.148 L 243.394 137.462 L 254.523 140.934 L 265.542 144.618 L 276.181 148.429 L 286.717 152.471 L 296.946 156.674 L 306.964 161.081 L 316.824 165.72 L 326.401 170.539 L 335.772 175.58 L 344.944 180.853 L 353.934 186.375 L 362.687 192.116 L 371.229 198.098 L 379.631 204.375 L 387.795 210.885 L 395.788 217.681 L 403.604 224.768 L 411.233 232.143 L 418.678 239.813 L 425.976 247.826 L 433.096 256.155 L 440.045 264.815 L 446.815 273.803 L 453.439 283.173 L 459.914 292.927 L 466.207 303.03 L 469.376 308.45 C 469.826 470.522 470.421 663.475 470.249 828.124 L 463.958 820.463 L 463.549 819.978 L 455.837 811.099 L 455.41 810.621 L 447.44 801.945 L 447 801.479 L 438.778 793.015 L 438.325 792.562 L 429.861 784.321 L 429.39 783.876 L 420.689 775.869 L 420.205 775.435 L 411.275 767.672 L 410.774 767.249 L 401.622 759.74 L 401.102 759.326 L 391.735 752.083 L 391.201 751.682 L 381.626 744.713 L 381.071 744.322 L 371.295 737.639 L 370.721 737.259 L 360.752 730.873 L 360.159 730.505 L 350.003 724.426 L 349.391 724.073 L 339.057 718.311 L 338.422 717.97 L 327.914 712.535 L 327.259 712.209 L 316.587 707.113 L 315.912 706.804 L 305.083 702.056 L 304.381 701.762 L 293.401 697.375 L 292.684 697.102 L 281.56 693.082 L 280.815 692.827 L 269.554 689.188 L 268.789 688.956 L 257.399 685.708 L 256.614 685.499 L 245.102 682.652 L 244.296 682.468 L 232.669 680.032 C 228.422 679.34 219.243 677.743 215.386 677.214 C 214.247 499.149 212.814 301.585 211.88 128.843 L 220.306 130.975 Z M 102.516 764.098 C 103.382 769.148 104.842 773.721 107.156 778.3 C 109.671 780.672 112.367 782.67 115.195 784.652 C 121.706 786.811 128.501 787.452 135.311 788.025 C 143.13 788.921 150.948 789.817 158.766 790.713 C 176.506 793.57 194.174 796.739 211.799 800.234 C 229.271 804.23 246.643 808.557 263.946 813.23 C 265.207 813.595 266.469 813.961 267.73 814.327 C 266.786 814.224 265.841 814.122 264.897 814.02 C 262.064 813.714 259.23 813.407 256.397 813.101 C 256.287 813.09 256.176 813.079 256.066 813.068 C 251.333 812.625 246.599 812.182 241.866 811.74 C 241.759 811.73 241.652 811.721 241.546 811.711 C 236.854 811.339 232.163 810.967 227.471 810.594 C 227.37 810.587 227.268 810.579 227.167 810.572 C 222.525 810.265 217.883 809.958 213.241 809.652 C 213.141 809.646 213.041 809.639 212.941 809.633 C 208.355 809.39 203.769 809.148 199.182 808.905 C 199.088 808.9 198.993 808.896 198.898 808.892 C 194.374 808.708 189.851 808.524 185.327 808.34 C 185.234 808.337 185.141 808.334 185.048 808.33 C 180.592 808.204 176.137 808.077 171.682 807.951 C 171.593 807.949 171.503 807.947 171.414 807.945 C 167.035 807.871 162.655 807.798 158.276 807.725 C 158.147 807.724 158.019 807.723 157.89 807.722 C 149.386 807.722 140.882 807.723 132.378 807.723 C 132.213 807.725 132.048 807.726 131.883 807.728 C 123.762 807.903 115.64 808.078 107.518 808.252 C 107.361 808.258 107.204 808.263 107.048 808.268 C 100.138 808.558 93.2285 808.849 86.319 809.139 C 86.2497 775.481 86.1803 741.823 86.111 708.164 C 86.111 708.158 86.111 708.151 86.111 708.144 C 85.9222 644.501 85.7334 580.859 85.5446 517.216 C 85.3551 453.942 85.1657 390.668 84.9762 327.394 C 84.9059 294.124 84.8356 260.855 84.7653 227.585 C 85.4108 227.556 86.0563 227.526 86.7018 227.496 C 91.9733 227.19 97.2448 226.883 102.516 226.577 C 102.516 405.75 102.516 584.924 102.516 764.098 Z M 166.247 193.37 C 166.247 193.37 163.581 193.409 162.248 193.429 C 157.8 193.496 153.353 193.563 148.906 193.63 C 148.776 193.633 148.646 193.636 148.516 193.639 C 148.516 376.813 148.516 559.987 148.516 743.161 C 222.572 752.716 348.764 787.691 393.533 813.628 C 378.018 798.687 372.019 794.791 359.511 785.382 C 318.597 756.172 274.575 736.205 225.414 725.387 C 220.941 724.403 191.603 721.976 180.955 717.342 C 173.577 712.931 171.544 705.765 170.65 697.559 C 168.997 682.387 170.003 665.447 169.295 648.936 C 168.226 491.425 166.79 351.826 165.892 194.314 M 804.108 75.1469 C 808.303 76.3189 811.915 77.9999 815.427 80.5931 C 817.96 83.5281 819.804 86.6549 821.384 90.1947 C 821.977 92.737 822.49 95.2687 822.935 97.8412 C 822.879 113.603 822.823 129.365 822.768 145.127 C 822.767 145.201 822.766 145.275 822.766 145.349 C 828.727 145.398 834.688 145.448 840.649 145.497 C 851.517 145.301 862.236 145.443 872.837 148.101 C 876.359 150.517 879.267 153.174 881.772 156.649 C 883.933 160.575 885.236 164.616 886.202 168.986 C 886.202 171.332 886.202 173.679 886.202 176.026 C 886.202 176.808 886.202 177.59 886.202 178.371 C 886.202 178.372 886.203 178.372 886.203 178.372 C 887.535 178.445 888.866 178.517 890.197 178.589 C 898.931 179.046 907.664 179.502 916.397 179.958 C 923.084 180.237 929.62 180.788 936.17 182.2 C 937.158 182.728 938.146 183.256 939.135 183.785 C 941.921 186.446 944.393 189.274 946.646 192.402 C 948.08 195.974 949.179 199.58 950 203.342 C 949.45 412.714 948.899 622.086 948.349 831.458 C 947.306 836.18 945.862 840.636 943.871 845.047 C 942.428 846.566 940.985 848.084 939.542 849.603 C 935.456 851.665 931.314 853.231 926.888 854.404 C 918.764 854.229 910.686 853.659 902.585 853.046 C 874.462 852.529 846.342 852.112 818.216 851.794 C 798.333 852.706 778.46 853.711 758.587 854.81 C 738.773 856.719 718.99 858.784 699.209 861.009 C 679.597 864.465 660.042 868.104 640.5 871.934 C 621.157 876.654 601.904 881.673 582.719 886.997 C 561.949 894.855 541.404 903.226 520.864 911.663 C 516.22 913.765 511.932 916.263 507.71 919.12 C 506.682 919.824 504.626 921.232 504.626 921.232 C 504.626 921.232 504.595 921.252 504.579 921.262 C 504.057 921.621 503.535 921.981 503.013 922.34 C 501.19 923.314 499.401 924.114 497.466 924.839 C 492.936 925.182 488.77 924.709 484.373 923.561 C 479.006 919.94 473.735 916.546 467.854 913.805 C 447.314 905.367 426.771 896.997 406 889.139 C 386.814 883.816 367.562 878.797 348.219 874.076 C 328.677 870.245 309.121 866.607 289.51 863.151 C 269.729 860.926 249.946 858.86 230.132 856.952 C 210.259 855.852 190.386 854.847 170.503 853.936 C 142.377 854.254 114.257 854.672 86.1338 855.188 C 78.0318 855.801 69.9567 856.372 61.8311 856.545 C 57.4074 855.374 53.264 853.808 49.1768 851.745 C 47.7337 850.226 46.2907 848.707 44.8477 847.189 C 42.8562 842.78 41.4134 838.325 40.3701 833.6 C 39.8197 624.228 39.2692 414.856 38.7188 205.484 C 39.5395 201.723 40.6383 198.117 42.0723 194.543 C 44.3248 191.417 46.7964 188.588 49.584 185.926 C 50.5723 185.398 51.5605 184.87 52.5488 184.341 C 59.1024 182.929 65.6269 182.379 72.3213 182.1 C 81.0547 181.644 89.7881 181.187 98.5215 180.731 C 99.8529 180.659 101.184 180.586 102.516 180.514 C 102.516 180.514 102.516 180.513 102.517 180.513 C 102.517 179.731 102.517 178.949 102.517 178.167 C 102.517 175.821 102.517 173.474 102.517 171.127 C 103.482 166.759 104.784 162.722 106.946 158.79 C 109.446 155.321 112.357 152.659 115.882 150.243 C 126.477 147.588 137.198 147.442 148.069 147.639 C 154.03 147.59 159.991 147.54 165.952 147.491 C 165.952 147.417 165.951 147.343 165.951 147.269 C 165.896 131.507 165.84 115.745 165.784 99.9828 C 166.228 97.4103 166.742 94.8786 167.335 92.3363 C 168.911 88.8031 170.76 85.6703 173.292 82.7347 C 176.8 80.1438 180.407 78.464 184.61 77.2885 C 192.067 76.7659 199.199 78.4783 206.406 80.2328 C 234.389 86.9541 262.019 94.6601 289.135 104.344 C 310.103 112.23 330.563 121.165 350.534 131.319 C 372.821 143.842 394.031 157.89 414.136 173.686 C 433.868 189.951 452.068 207.692 468.745 227.081 C 476.434 236.928 484.039 246.804 491.354 256.933 C 492.122 258.024 492.891 259.115 493.659 260.206 C 493.768 260.038 493.877 259.87 493.986 259.702 C 494.315 259.197 494.644 258.693 494.973 258.189 C 503.026 246.886 511.366 235.827 519.974 224.94 C 536.65 205.552 554.849 187.809 574.583 171.544 C 594.686 155.748 615.898 141.701 638.185 129.177 C 655.306 120.469 672.778 112.635 690.639 105.567 C 720.582 94.3054 751.222 85.5569 782.312 78.0912 C 789.512 76.3386 796.651 74.6244 804.108 75.1469 Z"/>
</svg>
