<svg xmlns="http://www.w3.org/2000/svg" viewBox="0 0 1000 1000">
  <path fill="currentColor" d="M 858.494 506.999 L 677.765 639.711 C 577.996 713.045 437.694 691.493 364.49 591.588 C 352.943 575.906 344.637 558.948 337.703 541.702 L 421.678 480.016 C 425.675 477.055 430.256 475.709 434.7 473.982 C 437.09 491.971 443.38 509.616 454.828 525.227 C 491.384 575.117 561.68 585.86 611.465 549.287 L 792.141 416.568 C 841.99 379.95 852.773 309.626 816.185 259.759 C 779.65 209.901 709.392 199.108 659.548 235.699 L 595.279 282.956 C 552.791 258.393 504.812 246.175 456.336 245.848 L 593.247 145.277 C 693.064 71.9793 833.312 93.5222 906.575 193.407 C 979.786 293.288 958.257 433.693 858.494 506.999 Z"/>
  <path fill="currentColor" d="M 404.737 701.17 L 340.442 748.424 C 290.629 784.992 220.341 774.196 183.778 724.359 C 147.22 674.469 158.003 604.144 207.824 567.525 L 388.529 434.809 C 438.377 398.192 508.61 408.981 545.165 458.871 C 556.589 474.451 562.88 492.095 565.33 510.066 C 569.806 508.315 574.325 507.014 578.317 504.081 L 662.289 442.423 C 655.417 425.131 647.048 408.219 635.506 392.511 C 562.297 292.634 421.995 271.082 322.203 344.384 L 141.527 477.103 C 41.7337 550.433 20.2098 690.811 93.4407 790.719 C 166.68 890.574 306.956 912.122 406.742 838.845 L 543.685 738.251 C 495.179 737.948 447.203 725.702 404.737 701.17 Z"/>
</svg>
