<svg xmlns="http://www.w3.org/2000/svg" viewBox="0 0 1000 1000">
  <path fill-rule="evenodd" fill="currentColor" d="M 628.716 950 C 474.021 950 319.326 950 164.632 950 C 164.632 650 164.632 350 164.632 50 C 288.211 50 411.789 50 535.368 50 C 635.368 150 735.368 250 835.368 350 C 835.368 408.26 835.368 466.52 835.368 524.78 C 835.368 527.007 835.368 531.462 835.368 531.462 L 835.216 531.462 C 835.216 531.462 832.076 531.462 830.506 531.462 C 776.258 531.462 795.719 531.462 735.368 531.462 C 735.368 531.462 735.368 526.861 735.368 524.561 C 735.368 497.286 735.368 470.012 735.368 442.738 C 735.368 441.578 735.368 440.417 735.368 439.257 C 735.368 439.251 735.368 439.244 735.368 439.238 C 733.877 439.238 732.386 439.238 730.895 439.238 C 637.337 439.238 543.779 439.238 450.222 439.238 C 450.148 439.238 450.074 439.238 450 439.238 C 450 344.094 450 248.949 450 153.805 C 450 152.536 449.999 151.268 449.999 150 C 448.538 150 447.078 150 445.617 150 C 385.289 150 324.96 150 264.632 150 C 264.632 383.333 264.632 616.667 264.632 850 C 384.457 850 504.282 850 624.107 850 C 625.644 850 628.716 850 628.716 850 L 628.716 849.934 C 628.716 860.579 628.716 936.279 628.716 950 Z M 552.688 208.741 C 596.187 252.24 639.686 295.739 683.185 339.238 C 683.182 339.238 683.179 339.238 683.177 339.238 C 681.287 339.238 679.397 339.238 677.507 339.238 C 635.032 339.238 592.558 339.238 550.083 339.238 C 550.055 339.238 550.028 339.238 550 339.238 C 550 296.741 550 254.243 550 211.746 C 550 209.85 550 207.954 550 206.059 C 550 206.057 550 206.056 550 206.055 C 550.896 206.95 551.792 207.846 552.688 208.741 Z"/>
  <path fill="currentColor" stroke="currentColor" stroke-width="0" d="M 814.949 573.809 L 814.949 704.845 L 814.949 711.309 L 894.031 711.309 L 897.219 711.309 L 904.268 711.309 L 952.449 711.309 L 952.449 811.309 L 821.374 811.309 L 814.949 811.309 L 814.949 890.398 L 814.949 893.585 L 814.949 900.633 L 814.949 948.809 L 714.949 948.809 L 714.949 817.774 L 714.949 811.309 L 635.866 811.309 L 632.679 811.309 L 625.63 811.309 L 577.449 811.309 L 577.449 711.309 L 708.523 711.309 L 714.949 711.309 C 714.949 667.949 714.949 615.412 714.949 573.809 L 814.949 573.809"/>
</svg>
