<svg xmlns="http://www.w3.org/2000/svg" viewBox="0 0 1000 1000">
  <path fill-rule="evenodd" fill="currentColor" d="M 831.653 50 L 745.03 130.907 C 719.527 154.652 715.13 195.545 729.86 226.984 L 398.536 564.464 C 397.877 564.464 397.437 564.464 396.777 564.464 C 382.267 557.209 365.778 554.131 349.508 556.11 C 331.04 558.748 313.892 567.322 300.7 580.953 L 78.6451 805.866 C 56.6595 826.973 47.8652 858.412 55.78 887.873 C 63.6949 917.334 86.9997 940.199 116.68 947.454 C 146.361 954.929 177.581 945.695 198.467 923.49 L 420.522 698.577 C 447.125 673.073 453.94 633.499 437.231 600.74 L 768.774 265.02 C 800.214 279.09 840.448 273.374 864.852 248.75 L 944.44 160.808 L 831.653 50 Z M 251.452 55.0567 C 229.027 55.0567 207.261 60.3333 187.254 67.3687 L 293.225 173.12 C 315.211 194.666 315.211 229.403 293.225 251.169 L 253.211 290.963 C 231.445 312.728 196.928 312.728 174.942 290.963 L 68.9715 185.212 C 61.9361 205.219 56.6595 226.984 56.6595 249.41 C 56.6595 356.7 143.942 443.763 251.452 443.763 C 274.098 443.763 295.863 438.486 315.87 431.451 L 382.047 497.408 L 385.345 497.408 L 501.869 381.324 L 434.153 313.608 C 441.188 293.381 446.245 271.835 446.245 249.41 C 446.245 142.12 359.182 55.0567 251.452 55.0567 Z M 620.152 499.167 L 503.628 615.471 C 504.287 617.01 504.947 618.769 505.386 620.527 L 569.804 684.726 C 562.769 704.732 557.492 726.498 557.492 748.924 C 557.492 855.994 644.775 943.057 752.285 943.057 C 776.689 943.057 800.434 937.341 821.98 929.206 L 708.974 816.639 C 687.208 794.874 687.208 758.377 708.974 736.832 L 747.229 698.577 C 758.221 687.804 772.952 681.208 787.242 681.208 C 801.533 681.208 816.263 687.804 827.256 698.577 L 936.745 807.845 C 942.681 789.377 947.078 769.37 947.078 748.924 C 947.078 641.634 860.015 554.571 752.285 554.571 C 729.86 554.571 708.094 559.847 688.087 566.883 L 620.152 499.167 Z M 620.152 499.167"/>
</svg>
