<svg xmlns="http://www.w3.org/2000/svg" viewBox="0 0 1000 1000">
  <path fill-rule="evenodd" fill="currentColor" d="M 50 200 L 950 200 L 950 800 L 50 800 L 50 200 Z M 850 300 C 850 433.333 850 566.667 850 700 C 816.667 700 783.333 699.999 750 699.999 C 750 633.333 750 566.666 750 500 C 716.667 500 683.333 500 650 500 C 650 566.596 650 633.192 650 699.788 C 650 699.859 650 699.929 650 700 C 616.606 700 583.212 700 549.817 700 C 549.878 600 549.939 500 550 400 C 534.371 400 518.743 400 503.114 400 C 485.41 400 467.705 400 450 400 C 449.966 500 449.932 600 449.897 700 C 427.115 700 404.333 700 381.551 700 C 371.034 700 350 700 350 700 L 350 699.788 C 350 699.788 350 684.216 350 676.431 C 350 617.62 350 558.81 350 500 C 316.667 500 283.333 500 250 500 C 250 558.81 250 617.62 250 676.431 C 250 684.216 250 699.788 250 699.788 C 250 699.788 250 699.929 250 700 C 236.445 700 222.89 700 209.335 700 C 203.776 700 192.659 700 192.659 700 C 192.659 700 180.968 700 175.123 700 C 166.749 700 158.374 700 150 700 C 150 566.667 150 433.333 150 300 C 383.333 300 616.667 300 850 300 Z"/>
</svg>
