<svg xmlns="http://www.w3.org/2000/svg" viewBox="0 0 1000 1000">
  <path fill-rule="evenodd" fill="currentColor" d="M 660.068 564.883 L 705.467 644.665 L 809.126 644.665 L 713.299 496.816 L 808.362 355.335 L 704.703 355.335 L 664.398 432.761 L 624.475 355.335 L 520.816 355.335 L 610.785 496.816 L 511.074 644.665 L 614.733 644.665 L 660.068 564.883 L 660.068 564.883 Z M 343.545 233.891 C 367.289 212.194 398.291 200.162 430.455 200.162 L 900 200.162 C 927.614 200.162 950 222.548 950 250.162 L 950 749.838 C 950 777.452 927.614 799.838 900 799.838 L 430.455 799.838 C 398.268 799.838 367.221 787.916 343.307 766.372 L 87.1486 535.606 C 67.242 517.673 67.1312 486.485 86.9099 468.411 L 343.545 233.891 Z"/>
</svg>
