<svg xmlns="http://www.w3.org/2000/svg" viewBox="0 0 1000 1000">
  <path fill-rule="evenodd" fill="currentColor" d="M 500 279.795 C 621.616 279.795 720.205 378.384 720.205 500 C 720.205 621.616 621.616 720.205 500 720.205 C 378.384 720.205 279.795 621.616 279.795 500 C 279.795 378.384 378.384 279.795 500 279.795 Z M 553.854 50 C 557.609 85.6094 561.364 121.219 565.119 156.828 C 565.259 158.153 565.538 160.803 565.538 160.803 C 565.538 160.803 568.21 161.333 569.546 161.598 C 586.119 165.293 602.619 169.501 618.532 175.504 C 618.539 175.495 618.554 175.477 618.554 175.477 C 618.554 175.477 620.159 173.346 620.961 172.281 C 642.32 143.926 663.678 115.571 685.037 87.2158 C 713.905 103.882 742.772 120.549 771.64 137.216 C 757.079 169.95 742.519 202.684 727.958 235.418 C 727.416 236.636 726.332 239.072 726.332 239.072 C 726.332 239.072 726.323 239.091 726.318 239.101 C 740.112 251.209 752.897 264.334 764.835 278.271 C 764.84 278.27 764.85 278.266 764.85 278.266 C 764.85 278.266 767.304 277.223 768.531 276.702 C 801.234 262.814 833.936 248.925 866.639 235.037 C 883.305 263.905 899.972 292.772 916.639 321.64 C 887.687 342.69 858.735 363.74 829.783 384.79 C 828.705 385.574 826.548 387.142 826.548 387.142 C 826.548 387.142 826.515 387.165 826.498 387.177 C 828.483 392.815 830.197 398.535 831.962 404.245 C 832.33 405.552 833.065 408.167 833.065 408.167 C 833.065 408.167 833.748 410.707 834.09 411.978 C 836.447 421.393 838.575 430.841 840.26 440.401 C 840.267 440.402 840.282 440.404 840.282 440.404 C 840.282 440.404 842.929 440.729 844.252 440.891 C 879.501 445.212 914.751 449.533 950 453.854 C 950 487.188 950 520.521 950 553.854 C 914.391 557.61 878.781 561.365 843.172 565.12 C 841.847 565.259 840.522 565.399 839.197 565.538 L 839.197 565.539 C 839.197 565.539 838.667 568.21 838.402 569.546 C 834.707 586.118 830.503 602.621 824.494 618.532 C 824.504 618.54 824.523 618.555 824.523 618.555 C 824.523 618.555 826.654 620.159 827.719 620.961 C 856.074 642.32 884.429 663.678 912.784 685.037 C 896.118 713.905 879.451 742.772 862.784 771.64 C 830.05 757.079 797.316 742.519 764.582 727.958 C 763.364 727.416 760.928 726.332 760.928 726.332 C 760.928 726.332 760.908 726.323 760.898 726.318 C 748.793 740.114 735.665 752.898 721.727 764.835 C 721.729 764.84 721.733 764.851 721.733 764.851 C 721.733 764.851 722.776 767.305 723.297 768.532 C 737.186 801.234 751.074 833.937 764.963 866.639 C 736.095 883.305 707.228 899.972 678.36 916.639 C 657.31 887.687 636.26 858.735 615.21 829.783 C 614.426 828.705 612.857 826.548 612.857 826.548 C 612.857 826.548 612.833 826.515 612.821 826.498 C 607.184 828.483 601.464 830.197 595.754 831.962 C 594.447 832.33 591.833 833.065 591.833 833.065 C 591.833 833.065 589.292 833.749 588.021 834.091 C 580.56 835.958 573.083 837.67 565.541 839.184 C 565.541 839.187 565.54 839.194 565.54 839.194 C 565.54 839.194 565.26 841.846 565.12 843.172 C 561.365 878.781 557.61 914.391 553.854 950 C 520.521 950 487.188 950 453.854 950 C 449.533 914.751 445.211 879.501 440.89 844.252 C 440.728 842.929 440.403 840.284 440.403 840.284 C 440.403 840.284 437.723 839.802 436.383 839.561 C 419.728 836.164 403.231 832.133 387.169 826.509 C 387.16 826.522 387.142 826.548 387.142 826.548 C 387.142 826.548 385.573 828.705 384.789 829.783 C 363.739 858.735 342.689 887.687 321.64 916.639 C 292.772 899.972 263.905 883.305 235.037 866.639 C 248.926 833.937 262.814 801.234 276.703 768.532 C 277.224 767.305 278.267 764.851 278.267 764.851 C 278.267 764.851 278.274 764.83 278.278 764.82 C 264.227 753.169 250.97 740.193 239.097 726.32 C 239.089 726.324 239.072 726.332 239.072 726.332 C 239.072 726.332 236.636 727.416 235.418 727.958 C 202.684 742.519 169.95 757.079 137.216 771.64 C 120.549 742.772 103.882 713.905 87.2158 685.037 C 115.571 663.678 143.926 642.32 172.281 620.961 C 173.346 620.159 175.477 618.554 175.477 618.554 C 175.477 618.554 175.505 618.532 175.519 618.521 C 173.508 613.177 171.793 607.726 169.996 602.306 C 169.602 601.007 168.814 598.409 168.814 598.409 C 168.814 598.409 168.081 595.882 167.714 594.619 C 165.108 584.996 162.705 575.337 160.831 565.542 C 160.823 565.541 160.806 565.54 160.806 565.54 C 160.806 565.54 158.154 565.26 156.828 565.12 C 121.219 561.365 85.6094 557.61 50 553.854 C 50 520.521 50 487.188 50 453.854 C 85.2493 449.533 120.499 445.212 155.748 440.891 C 157.038 440.733 159.716 440.404 159.716 440.404 C 159.716 440.404 160.198 437.724 160.439 436.384 C 163.835 419.728 167.867 403.231 173.49 387.169 C 173.478 387.16 173.452 387.142 173.452 387.142 C 173.452 387.142 171.295 385.574 170.217 384.79 C 141.265 363.74 112.313 342.69 83.3613 321.64 C 100.028 292.772 116.695 263.905 133.361 235.037 C 166.063 248.926 198.766 262.814 231.468 276.703 C 232.695 277.224 235.149 278.267 235.149 278.267 C 235.149 278.267 235.169 278.274 235.179 278.278 C 246.834 264.229 259.804 250.97 273.678 239.098 C 273.674 239.09 273.667 239.073 273.667 239.073 C 273.667 239.073 272.584 236.636 272.042 235.418 C 257.481 202.684 242.921 169.95 228.36 137.216 C 257.228 120.549 286.095 103.882 314.963 87.2158 C 336.322 115.571 357.68 143.926 379.039 172.281 C 379.841 173.346 381.446 175.477 381.446 175.477 C 381.446 175.477 381.468 175.505 381.479 175.52 C 386.823 173.509 392.274 171.793 397.694 169.996 C 398.993 169.602 401.591 168.814 401.591 168.814 C 401.591 168.814 404.118 168.081 405.381 167.714 C 416.938 164.584 428.579 161.687 440.402 159.731 C 440.403 159.727 440.404 159.718 440.404 159.718 C 440.404 159.718 440.729 157.071 440.891 155.748 C 445.212 120.499 449.533 85.2493 453.854 50 C 487.188 50 520.521 50 553.854 50 Z"/>
</svg>
