<svg xmlns="http://www.w3.org/2000/svg" viewBox="0 0 1000 1000">
  <path fill-rule="evenodd" fill="currentColor" d="M 496.28 150 C 625.857 150 730.9 255.043 730.9 384.62 C 730.9 514.197 625.857 619.239 496.28 619.239 C 366.703 619.239 261.661 514.197 261.661 384.62 C 261.661 255.043 366.703 150 496.28 150 Z M 732.892 148.008 C 794.949 211.556 829.776 295.931 830.9 384.62 C 830.347 428.871 821.814 472.198 805.281 513.255 C 786.897 555.912 743.571 602.35 732.211 622.021 C 732.211 622.021 574.924 840.674 496.28 950 C 417.637 840.674 260.35 622.021 260.35 622.021 C 247.53 602.557 212.674 572.176 187.28 513.255 C 170.745 472.192 162.213 428.864 161.66 384.62 C 162.785 295.833 197.674 211.503 259.668 148.008 C 323.224 85.9541 407.587 51.1232 496.28 50 C 585.067 51.1244 669.397 86.0134 732.892 148.008 Z"/>
  <path fill="currentColor" d="M 496.28 274.747 C 558.482 274.747 608.907 325.172 608.907 387.373 C 608.907 449.575 558.482 500 496.28 500 C 434.078 500 383.653 449.575 383.653 387.373 C 383.653 325.172 434.078 274.747 496.28 274.747 Z"/>
</svg>
