<svg xmlns="http://www.w3.org/2000/svg" viewBox="0 0 1000 1000">
  <g>
    <path fill-rule="evenodd" fill="currentColor" stroke="currentColor" stroke-width="0" d="M 891.041 770.464 C 891.041 770.464 888.504 771.453 887.236 771.947 C 874.997 777.202 863.352 783.24 851.989 790.206 C 840.786 797.837 830.321 806.137 820.305 815.287 C 810.217 826.483 801.186 838.207 792.975 850.863 C 785.572 863.721 779.33 876.878 774.061 890.762 C 773.622 892.061 772.742 894.657 772.742 894.657 C 772.742 894.657 839.884 915.619 873.455 926.102 C 874.568 926.449 876.797 927.146 876.797 927.146 C 876.797 927.146 881.339 928.562 883.609 929.272 C 905.739 936.181 927.87 943.09 950 950 C 930.998 892.138 911.996 834.274 892.995 776.411 C 892.344 774.429 891.694 772.447 891.043 770.463 C 891.043 770.464 891.041 770.464 891.041 770.464 Z M 355.084 242.857 C 318.992 279.102 282.898 315.346 246.805 351.59 C 246.805 402.65 246.805 453.712 246.805 504.772 C 353.338 613.259 459.871 721.746 566.404 830.233 C 611.334 844.261 656.264 858.288 701.194 872.317 C 703.282 872.969 707.46 874.273 707.46 874.273 C 707.46 874.273 707.9 871.508 708.12 870.127 C 712.217 848.307 718.978 827.474 728.532 807.446 C 738.939 787.58 751.712 769.516 766.84 752.991 C 782.294 738.855 798.917 726.759 817.184 716.533 C 833.133 708.555 849.675 701.598 867.081 697.497 C 853.463 656.028 839.845 614.558 826.227 573.089 C 718.11 463.012 609.993 352.935 501.876 242.857 C 452.946 242.857 404.015 242.857 355.084 242.857 Z"/>
    <path fill="currentColor" stroke="currentColor" stroke-width="0" d="M 309.822 50 L 437.858 178.571 L 341.831 178.571 C 333.329 178.571 325.327 181.836 319.325 187.864 L 192.29 315.681 C 186.287 321.708 182.787 329.743 182.787 338.282 L 182.787 440.486 L 50 307.143 L 50 182.338 L 181.786 50 L 309.822 50 Z"/>
  </g>
</svg>
