<svg xmlns="http://www.w3.org/2000/svg" viewBox="0 0 1000 1000">
  <path fill="currentColor" d="M 3.18179 550 L 3.18179 450 L 292.498 450 L 292.498 550 L 3.18179 550 Z"/>
  <path fill="currentColor" d="M 446.28 -2.97699 L 546.28 -2.97699 L 546.28 292.498 L 446.28 292.498 L 446.28 -2.97699 Z"/>
  <path fill="currentColor" d="M 553.72 1001.02 L 453.72 1001.02 L 453.72 707.502 L 553.72 707.502 L 553.72 1001.02 Z"/>
  <path fill-rule="evenodd" fill="currentColor" d="M 505.021 221.233 C 660.789 221.233 787.063 347.507 787.063 503.275 C 787.063 659.042 660.789 785.317 505.021 785.317 C 349.253 785.317 222.979 659.042 222.979 503.275 C 222.979 347.507 349.253 221.233 505.021 221.233 Z M 496.28 117.958 C 707.276 117.958 878.322 289.004 878.322 500 C 878.322 710.996 707.276 882.042 496.28 882.042 C 285.284 882.042 114.238 710.996 114.238 500 C 114.238 289.004 285.284 117.958 496.28 117.958 Z"/>
  <path fill="currentColor" d="M 1001.78 450 L 1001.78 550 L 707.502 550 L 707.502 450 L 1001.78 450 Z"/>
  <path fill="currentColor" d="M 496.28 390.23 C 556.904 390.23 606.05 439.376 606.05 500 C 606.05 560.624 556.904 609.77 496.28 609.77 C 435.656 609.77 386.51 560.624 386.51 500 C 386.51 439.376 435.656 390.23 496.28 390.23 Z"/>
</svg>
