<svg xmlns="http://www.w3.org/2000/svg" viewBox="0 0 1000 1000">
  <path fill="currentColor" d="M 686.698 261.948 C 698.985 263.381 709.71 268.206 718.856 276.562 C 727.597 286.374 731.802 298.177 732.462 311.247 C 732.037 323.435 728.618 334.775 720.237 343.874 C 670.163 393.949 620.088 444.023 570.014 494.098 C 568.526 495.585 565.551 498.561 565.551 498.561 C 565.551 498.561 628.883 561.893 660.55 593.56 C 661.312 594.322 662.837 595.846 662.837 595.846 C 662.837 595.846 666.177 599.187 667.848 600.857 C 685.784 618.794 703.721 636.73 721.657 654.666 C 729.91 664.947 734.25 676.435 733.624 689.712 C 731.87 701.782 726.553 712.174 718.298 721.117 C 708.803 729.597 697.289 733.805 684.695 735.048 C 672.487 735.294 660.882 732.731 650.946 725.377 C 600.402 674.833 549.858 624.288 499.313 573.744 C 497.823 572.253 494.841 569.271 494.841 569.271 C 494.841 569.271 494.84 569.271 494.84 569.271 C 463.288 600.822 431.737 632.374 400.186 663.926 C 399.427 664.685 397.909 666.202 397.909 666.202 C 397.909 666.202 394.565 669.547 392.894 671.219 C 375.327 688.785 357.761 706.352 340.194 723.918 C 329.914 732.17 318.425 736.511 305.148 735.885 C 293.079 734.131 282.686 728.813 273.743 720.559 C 265.263 711.064 261.055 699.549 259.812 686.956 C 259.567 674.749 262.127 663.142 269.483 653.207 C 319.545 603.146 369.606 553.085 419.667 503.023 C 421.155 501.536 424.13 498.561 424.13 498.561 C 424.13 498.561 361.256 435.686 329.818 404.249 C 329.063 403.494 327.553 401.983 327.553 401.983 C 327.553 401.983 324.206 398.636 322.532 396.963 C 305.323 379.753 288.113 362.544 270.903 345.334 C 263.382 334.044 259.318 321.803 259.688 308.162 C 261.12 295.875 265.946 285.151 274.302 276.003 C 284.115 267.264 295.915 263.058 308.986 262.398 C 321.175 262.823 332.514 266.242 341.613 274.623 C 391.192 324.201 440.771 373.78 490.35 423.358 C 491.847 424.855 494.841 427.85 494.841 427.85 C 494.841 427.85 557.95 364.74 589.505 333.186 C 590.264 332.427 591.781 330.909 591.781 330.909 C 591.781 330.909 595.125 327.565 596.797 325.893 C 614.373 308.316 631.95 290.74 649.526 273.164 C 660.816 265.642 673.058 261.579 686.698 261.948 Z"/>
  <path fill-rule="evenodd" fill="currentColor" stroke="currentColor" stroke-width="0" d="M 500 103.427 C 714.97 103.427 889.237 277.694 889.237 492.664 C 889.237 707.634 714.97 881.901 500 881.901 C 285.03 881.901 110.763 707.634 110.763 492.664 C 110.763 277.694 285.03 103.427 500 103.427 Z M 500 50 C 748.528 50 950 251.472 950 500 C 950 748.528 748.528 950 500 950 C 251.472 950 50 748.528 50 500 C 50 251.472 251.472 50 500 50 Z"/>
</svg>
