<svg xmlns="http://www.w3.org/2000/svg" viewBox="0 0 1000 1000">
  <path fill-rule="evenodd" fill="currentColor" stroke="currentColor" stroke-width="0" d="M 850 405.101 C 850 553.4 850 701.7 850 850 C 616.667 850 383.333 850 150 850 C 150 751.775 150 653.551 150 555.326 C 150 553.289 150 549.215 150 549.215 C 150 549.215 150 546.322 150 544.875 C 150 498.284 150 451.692 150 405.101 C 150.12 405.101 150.36 405.101 150.36 405.101 C 150.36 405.101 153.194 405.101 154.611 405.101 C 276.851 405.101 399.09 405.101 521.329 405.101 C 521.628 405.101 522.226 405.101 522.226 405.101 C 522.226 405.101 522.959 405.101 523.326 405.101 C 523.806 405.101 524.286 405.101 524.766 405.101 C 524.766 405.1 524.766 405.1 524.766 405.1 C 633.177 405.1 741.589 405.1 850 405.101 Z M 477.794 305.101 C 370.027 305.101 262.26 305.101 154.493 305.101 C 152.996 305.101 150.001 305.101 150.001 305.101 L 150 305.101 C 150 305.101 150 300.351 150 297.977 C 150 268.913 150 239.85 150 210.786 C 245.088 210.786 340.176 210.786 435.265 210.786 C 450.752 241.582 464.24 273.416 477.794 305.101 Z M 450 110.786 C 465.037 111.345 478.902 115.474 491.771 123.295 C 504.039 132.01 513.328 143.11 519.793 156.702 C 528.852 174.409 536.362 192.897 544.086 211.215 C 556.98 242.488 568.509 274.801 583.606 305.101 C 689.071 305.101 794.535 305.101 900 305.101 C 913.507 305.782 925.326 310.629 935.355 319.745 C 944.457 329.761 949.318 341.58 950 355.101 C 950 534.273 950 713.446 950 892.618 C 949.618 908.694 946.282 923.922 935.604 936.408 C 926.252 945.152 915.055 949.44 902.295 950 C 634.863 950 367.432 950 100 950 C 86.4925 949.319 74.6754 944.47 64.6445 935.355 C 55.5432 925.34 50.6818 913.52 50 900 C 50 703.154 50 506.308 50 309.462 C 50 308.008 50 305.101 50 305.101 C 50 305.101 50 300.428 50 298.092 C 50 252.323 50 206.555 50 160.786 C 50.6812 147.279 55.5296 135.461 64.6445 125.431 C 74.6613 116.329 86.4798 111.471 100 110.786 C 216.667 110.786 333.333 110.786 450 110.786 Z"/>
</svg>
