<svg xmlns="http://www.w3.org/2000/svg" viewBox="0 0 1000 1000">
  <path fill="currentColor" d="M 854.72 449.463 L 673.991 582.175 C 574.222 655.509 433.92 633.957 360.716 534.052 C 349.169 518.37 340.863 501.412 333.929 484.166 L 417.904 422.48 C 421.901 419.519 426.482 418.173 430.926 416.446 C 433.316 434.435 439.606 452.08 451.054 467.691 C 487.61 517.581 557.906 528.324 607.691 491.751 L 788.367 359.032 C 838.216 322.414 848.999 252.09 812.411 202.223 C 775.876 152.365 705.618 141.572 655.774 178.163 L 591.505 225.42 C 549.017 200.857 501.038 188.639 452.562 188.312 L 589.473 87.7406 C 689.29 14.4429 829.538 35.9858 902.801 135.871 C 976.012 235.752 954.483 376.157 854.72 449.463 Z"/>
  <path fill="currentColor" d="M 400.963 643.634 L 336.668 690.888 C 286.855 727.456 216.567 716.66 180.004 666.823 C 143.446 616.933 154.229 546.608 204.05 509.989 L 384.755 377.273 C 434.603 340.656 504.836 351.445 541.391 401.335 C 552.815 416.915 559.106 434.559 561.556 452.53 C 566.032 450.779 570.551 449.478 574.543 446.545 L 658.515 384.887 C 651.643 367.595 643.274 350.683 631.732 334.975 C 558.523 235.098 418.221 213.546 318.429 286.848 L 137.753 419.567 C 37.9593 492.897 16.4354 633.275 89.6663 733.183 C 162.906 833.038 303.182 854.586 402.968 781.309 L 539.911 680.715 C 491.405 680.412 443.429 668.166 400.963 643.634 Z"/>
  <path fill="currentColor" stroke="currentColor" stroke-width="0" d="M 821.941 572.925 L 821.941 703.961 L 821.941 710.425 L 901.023 710.425 L 904.211 710.425 L 911.259 710.425 L 959.441 710.425 L 959.441 810.425 L 828.366 810.425 L 821.941 810.425 L 821.941 889.514 L 821.941 892.701 L 821.941 899.749 L 821.941 947.925 L 721.941 947.925 L 721.941 816.89 L 721.941 810.425 L 642.858 810.425 L 639.671 810.425 L 632.622 810.425 L 584.441 810.425 L 584.441 710.425 L 715.515 710.425 L 721.941 710.425 C 721.941 667.065 721.941 614.528 721.941 572.925 L 821.941 572.925"/>
</svg>
