<svg xmlns="http://www.w3.org/2000/svg" viewBox="0 0 1000 1000">
  <path fill-rule="evenodd" fill="currentColor" d="M 754.65 333.55 C 794.346 333.55 826.527 365.731 826.527 405.428 C 826.527 445.124 794.346 477.305 754.65 477.305 C 714.953 477.305 682.772 445.124 682.772 405.428 C 682.772 365.731 714.953 333.55 754.65 333.55 Z M 245.35 333.55 C 285.047 333.55 317.228 365.731 317.228 405.428 C 317.228 445.124 285.047 477.305 245.35 477.305 C 205.654 477.305 173.473 445.124 173.473 405.428 C 173.473 365.731 205.654 333.55 245.35 333.55 Z M 500 333.55 C 539.697 333.55 571.877 365.731 571.877 405.428 C 571.877 445.124 539.697 477.305 500 477.305 C 460.303 477.305 428.123 445.124 428.123 405.428 C 428.123 365.731 460.303 333.55 500 333.55 Z M 818.198 154.017 C 895.184 216.231 948.383 304.651 950 405.134 C 948.378 505.949 895.185 594.027 818.198 656.252 C 727.292 726.299 613.868 759.129 500 760.269 C 491.942 760.184 483.897 760.017 475.843 759.766 C 474.519 759.706 471.87 759.586 471.87 759.586 C 471.87 759.586 471.869 759.585 471.869 759.585 C 471.775 759.667 471.586 759.832 471.586 759.832 C 471.586 759.832 470.165 761.054 469.454 761.665 C 414.427 808.196 356.016 850.678 293.122 885.988 C 243.12 912.993 190.701 935.049 135 947 C 177.722 906.432 219.103 863.649 250.054 813.176 C 266.769 784.48 279.292 753.986 286.156 721.451 C 286.376 720.289 286.815 717.966 286.815 717.966 C 286.815 717.966 286.817 717.954 286.818 717.948 C 282.645 716.215 278.535 714.318 274.404 712.485 C 273.248 711.95 270.937 710.88 270.937 710.88 C 270.937 710.88 268.142 709.557 266.744 708.896 C 205.487 678.48 151.027 636.69 109.645 581.938 C 72.8007 529.477 51.3521 469.399 50 405.134 C 51.6218 304.324 104.812 216.234 181.802 154.017 C 272.7 83.9643 386.138 51.1393 500 50 C 613.825 51.1389 727.375 84.0216 818.198 154.017 Z"/>
</svg>
